<svg xmlns="http://www.w3.org/2000/svg" xmlns:xlink="http://www.w3.org/1999/xlink" width="100" zoomAndPan="magnify" viewBox="0 0 75 74.999997" height="100" preserveAspectRatio="xMidYMid meet" version="1.0"><defs><clipPath id="5b71ef698b"><path d="M 1.195312 0.824219 L 73.804688 0.824219 L 73.804688 74.289062 L 1.195312 74.289062 Z M 1.195312 0.824219 " clip-rule="nonzero"/></clipPath><clipPath id="e1a8601740"><path d="M 37.5 0.824219 C 17.449219 0.824219 1.195312 17.246094 1.195312 37.5 C 1.195312 57.753906 17.449219 74.175781 37.5 74.175781 C 57.550781 74.175781 73.804688 57.753906 73.804688 37.5 C 73.804688 17.246094 57.550781 0.824219 37.5 0.824219 Z M 37.5 0.824219 " clip-rule="nonzero"/></clipPath><clipPath id="c65430f747"><path d="M 22.664062 13.066406 L 53.414062 13.066406 L 53.414062 62.566406 L 22.664062 62.566406 Z M 22.664062 13.066406 " clip-rule="nonzero"/></clipPath><clipPath id="1415942e91"><path d="M 4.246094 4.6875 L 70.996094 4.6875 L 70.996094 71.4375 L 4.246094 71.4375 Z M 4.246094 4.6875 " clip-rule="nonzero"/></clipPath><clipPath id="669c6b9cd7"><path d="M 3.496094 37.941406 C 3.496094 56.71875 18.71875 71.945312 37.5 71.945312 C 56.28125 71.945312 71.503906 56.71875 71.503906 37.941406 C 71.503906 19.160156 56.28125 3.9375 37.5 3.9375 C 18.71875 3.9375 3.496094 19.160156 3.496094 37.941406 Z M 3.496094 37.941406 " clip-rule="nonzero"/></clipPath><clipPath id="c58012e745"><path d="M 37.5 4.835938 C 55.78125 4.835938 70.605469 19.65625 70.605469 37.941406 C 70.605469 56.222656 55.78125 71.042969 37.5 71.042969 C 19.21875 71.042969 4.394531 56.222656 4.394531 37.941406 C 4.394531 19.65625 19.21875 4.835938 37.5 4.835938 Z M 37.5 4.835938 " clip-rule="nonzero"/></clipPath><clipPath id="bfb4c4567e"><path d="M 3.496094 3.9375 L 71.742188 3.9375 L 71.742188 72 L 3.496094 72 Z M 3.496094 3.9375 " clip-rule="nonzero"/></clipPath><clipPath id="4f21a5891f"><path d="M 3.496094 37.941406 C 3.496094 56.71875 18.71875 71.945312 37.5 71.945312 C 56.28125 71.945312 71.503906 56.71875 71.503906 37.941406 C 71.503906 19.160156 56.28125 3.9375 37.5 3.9375 C 18.71875 3.9375 3.496094 19.160156 3.496094 37.941406 Z M 3.496094 37.941406 " clip-rule="nonzero"/></clipPath><clipPath id="b7c7f08009"><path d="M 3.496094 37.9375 C 3.496094 56.714844 18.71875 71.941406 37.496094 71.941406 C 56.277344 71.941406 71.5 56.714844 71.5 37.9375 C 71.5 19.160156 56.277344 3.9375 37.496094 3.9375 C 18.71875 3.9375 3.496094 19.160156 3.496094 37.9375 Z M 3.496094 37.9375 " clip-rule="nonzero"/></clipPath></defs><g clip-path="url(#5b71ef698b)"><g clip-path="url(#e1a8601740)"><path fill="#120f59" d="M 1.195312 0.824219 L 73.804688 0.824219 L 73.804688 74.289062 L 1.195312 74.289062 Z M 1.195312 0.824219 " fill-opacity="1" fill-rule="nonzero"/></g></g><g clip-path="url(#c65430f747)"><path fill="#55bf45" d="M 32.265625 49.433594 C 33.394531 50.636719 34.796875 51.402344 36.472656 51.726562 L 36.472656 40.308594 C 36.289062 40.234375 36.046875 40.15625 35.734375 40.058594 C 35.425781 39.96875 35.089844 39.886719 34.726562 39.816406 C 33.375 39.453125 32.046875 39.023438 30.734375 38.53125 C 29.425781 38.039062 28.25 37.382812 27.210938 36.5625 C 26.171875 35.742188 25.34375 34.722656 24.726562 33.503906 C 24.105469 32.28125 23.796875 30.761719 23.796875 28.9375 C 23.796875 27.078125 24.152344 25.441406 24.863281 24.023438 C 25.574219 22.601562 26.507812 21.40625 27.675781 20.445312 C 28.839844 19.476562 30.1875 18.730469 31.71875 18.203125 C 33.25 17.675781 34.835938 17.359375 36.472656 17.246094 L 36.472656 13.042969 L 39.695312 13.042969 L 39.695312 17.253906 C 41.335938 17.433594 42.875 17.789062 44.3125 18.316406 C 45.753906 18.84375 47.019531 19.574219 48.113281 20.503906 C 49.203125 21.433594 50.097656 22.589844 50.789062 23.972656 C 51.480469 25.359375 51.882812 27 51.992188 28.890625 L 44.234375 28.890625 C 44.195312 27.433594 43.742188 26.195312 42.867188 25.175781 C 41.992188 24.152344 40.933594 23.640625 39.699219 23.640625 L 39.699219 33.3125 C 40.136719 33.421875 40.582031 33.53125 41.039062 33.640625 C 41.496094 33.75 41.976562 33.878906 42.488281 34.023438 C 45.183594 34.75 47.257812 35.65625 48.714844 36.726562 C 50.171875 37.800781 51.246094 38.925781 51.9375 40.089844 C 52.628906 41.253906 53.039062 42.417969 53.167969 43.585938 C 53.296875 44.753906 53.359375 45.789062 53.359375 46.699219 C 53.359375 47.503906 53.160156 48.511719 52.757812 49.730469 C 52.359375 50.953125 51.640625 52.144531 50.601562 53.308594 C 49.5625 54.476562 48.167969 55.515625 46.421875 56.425781 C 44.671875 57.335938 42.429688 57.882812 39.699219 58.066406 L 39.699219 62.710938 L 36.476562 62.710938 L 36.476562 58.066406 C 32.398438 57.773438 29.210938 56.515625 26.914062 54.296875 C 24.621094 52.074219 23.289062 48.816406 22.925781 44.515625 L 30.632812 44.515625 C 30.59375 46.59375 31.140625 48.230469 32.265625 49.433594 Z M 34.671875 23.917969 C 34.089844 24.097656 33.5625 24.382812 33.089844 24.761719 C 32.617188 25.144531 32.242188 25.617188 31.96875 26.183594 C 31.695312 26.746094 31.558594 27.410156 31.558594 28.175781 C 31.558594 29.378906 31.941406 30.304688 32.707031 30.960938 C 33.46875 31.617188 34.726562 32.144531 36.476562 32.546875 L 36.476562 23.640625 C 35.855469 23.640625 35.253906 23.730469 34.671875 23.917969 Z M 41.75 51.265625 C 42.460938 51.027344 43.097656 50.6875 43.660156 50.253906 C 44.222656 49.820312 44.691406 49.277344 45.054688 48.640625 C 45.414062 48.003906 45.601562 47.246094 45.601562 46.371094 C 45.601562 44.949219 45.152344 43.886719 44.261719 43.175781 C 43.371094 42.464844 41.847656 41.820312 39.699219 41.238281 L 39.699219 51.726562 C 40.351562 51.65625 41.039062 51.503906 41.75 51.265625 Z M 41.75 51.265625 " fill-opacity="1" fill-rule="nonzero"/></g><g clip-path="url(#1415942e91)"><g clip-path="url(#669c6b9cd7)"><g clip-path="url(#c58012e745)"><path fill="#55bf45" d="M 37.496094 3.9375 C 18.738281 3.9375 3.496094 19.175781 3.496094 37.9375 C 3.496094 56.699219 18.738281 71.941406 37.496094 71.941406 C 56.257812 71.941406 71.5 56.699219 71.5 37.9375 C 71.5 19.175781 56.257812 3.9375 37.496094 3.9375 Z M 37.496094 5.414062 C 55.480469 5.414062 70.023438 19.957031 70.023438 37.9375 C 70.023438 55.917969 55.480469 70.460938 37.496094 70.460938 C 19.515625 70.460938 4.972656 55.917969 4.972656 37.9375 C 4.972656 19.957031 19.515625 5.414062 37.496094 5.414062 Z M 37.496094 5.414062 " fill-opacity="1" fill-rule="nonzero"/></g></g></g><g clip-path="url(#bfb4c4567e)"><g clip-path="url(#4f21a5891f)"><g clip-path="url(#b7c7f08009)"><path stroke-linecap="butt" transform="matrix(0.75, 0, 0, 0.75, 3.496002, 3.935733)" fill="none" stroke-linejoin="miter" d="M 0.000121866 45.335691 C 0.000121866 70.372149 20.296997 90.674233 45.333456 90.674233 C 70.375123 90.674233 90.671998 70.372149 90.671998 45.335691 C 90.671998 20.299232 70.375123 0.00235651 45.333456 0.00235651 C 20.296997 0.00235651 0.000121866 20.299232 0.000121866 45.335691 Z M 0.000121866 45.335691 " stroke="#55bf45" stroke-width="6" stroke-opacity="1" stroke-miterlimit="4"/></g></g></g></svg>