<svg xmlns="http://www.w3.org/2000/svg" xmlns:xlink="http://www.w3.org/1999/xlink" width="500" zoomAndPan="magnify" viewBox="0 0 375 374.999991" height="500" preserveAspectRatio="xMidYMid meet" version="1.0"><defs><g/><clipPath id="d14ce1d334"><path d="M 208.453125 151.59375 L 285.34375 151.59375 L 285.34375 229.386719 L 208.453125 229.386719 Z M 208.453125 151.59375 " clip-rule="nonzero"/></clipPath><clipPath id="e2bfea2707"><path d="M 246.898438 151.59375 C 225.664062 151.59375 208.453125 168.984375 208.453125 190.429688 C 208.453125 211.878906 225.664062 229.269531 246.898438 229.269531 C 268.132812 229.269531 285.34375 211.878906 285.34375 190.429688 C 285.34375 168.984375 268.132812 151.59375 246.898438 151.59375 Z M 246.898438 151.59375 " clip-rule="nonzero"/></clipPath><clipPath id="c35fe65b87"><path d="M 231.1875 164.558594 L 264 164.558594 L 264 217.058594 L 231.1875 217.058594 Z M 231.1875 164.558594 " clip-rule="nonzero"/></clipPath><clipPath id="decc0ed97a"><path d="M 194.152344 160.859375 L 203.214844 160.859375 L 203.214844 226.921875 L 194.152344 226.921875 Z M 194.152344 160.859375 " clip-rule="nonzero"/></clipPath><clipPath id="bc616c9c72"><path d="M 194.902344 160.859375 L 202.464844 160.859375 C 202.878906 160.859375 203.214844 161.195312 203.214844 161.609375 L 203.214844 226.15625 C 203.214844 226.570312 202.878906 226.90625 202.464844 226.90625 L 194.902344 226.90625 C 194.488281 226.90625 194.152344 226.570312 194.152344 226.15625 L 194.152344 161.609375 C 194.152344 161.195312 194.488281 160.859375 194.902344 160.859375 Z M 194.902344 160.859375 " clip-rule="nonzero"/></clipPath><clipPath id="d2738fb492"><path d="M 182.902344 160.859375 L 194.753906 160.859375 L 194.753906 226.914062 L 182.902344 226.914062 Z M 182.902344 160.859375 " clip-rule="nonzero"/></clipPath><clipPath id="b88d95313f"><path d="M 183.652344 160.859375 L 194.003906 160.859375 C 194.417969 160.859375 194.753906 161.195312 194.753906 161.609375 L 194.753906 226.15625 C 194.753906 226.570312 194.417969 226.90625 194.003906 226.90625 L 183.652344 226.90625 C 183.238281 226.90625 182.902344 226.570312 182.902344 226.15625 L 182.902344 161.609375 C 182.902344 161.195312 183.238281 160.859375 183.652344 160.859375 Z M 183.652344 160.859375 " clip-rule="nonzero"/></clipPath><clipPath id="1abdce7d69"><path d="M 166.3125 179.125 L 175.402344 179.125 L 175.402344 226.925781 L 166.3125 226.925781 Z M 166.3125 179.125 " clip-rule="nonzero"/></clipPath><clipPath id="4de18a8a20"><path d="M 167.0625 179.125 L 174.652344 179.125 C 174.851562 179.125 175.042969 179.203125 175.183594 179.34375 C 175.324219 179.484375 175.402344 179.675781 175.402344 179.875 L 175.402344 226.15625 C 175.402344 226.355469 175.324219 226.546875 175.183594 226.6875 C 175.042969 226.828125 174.851562 226.90625 174.652344 226.90625 L 167.0625 226.90625 C 166.863281 226.90625 166.671875 226.828125 166.53125 226.6875 C 166.390625 226.546875 166.3125 226.355469 166.3125 226.15625 L 166.3125 179.875 C 166.3125 179.675781 166.390625 179.484375 166.53125 179.34375 C 166.671875 179.203125 166.863281 179.125 167.0625 179.125 Z M 167.0625 179.125 " clip-rule="nonzero"/></clipPath><clipPath id="87e7bffc52"><path d="M 155.175781 179.125 L 167.0625 179.125 L 167.0625 226.90625 L 155.175781 226.90625 Z M 155.175781 179.125 " clip-rule="nonzero"/></clipPath><clipPath id="e9c37176ae"><path d="M 155.925781 179.125 L 166.3125 179.125 C 166.511719 179.125 166.699219 179.203125 166.839844 179.34375 C 166.980469 179.484375 167.0625 179.675781 167.0625 179.875 L 167.0625 226.15625 C 167.0625 226.355469 166.980469 226.546875 166.839844 226.6875 C 166.699219 226.828125 166.511719 226.90625 166.3125 226.90625 L 155.925781 226.90625 C 155.726562 226.90625 155.535156 226.828125 155.394531 226.6875 C 155.253906 226.546875 155.175781 226.355469 155.175781 226.15625 L 155.175781 179.875 C 155.175781 179.675781 155.253906 179.484375 155.394531 179.34375 C 155.535156 179.203125 155.726562 179.125 155.925781 179.125 Z M 155.925781 179.125 " clip-rule="nonzero"/></clipPath><clipPath id="3286b9bea9"><path d="M 137.832031 193.882812 L 147.675781 193.882812 L 147.675781 226.941406 L 137.832031 226.941406 Z M 137.832031 193.882812 " clip-rule="nonzero"/></clipPath><clipPath id="1154755f59"><path d="M 138.582031 193.882812 L 146.925781 193.882812 C 147.125 193.882812 147.3125 193.960938 147.453125 194.101562 C 147.59375 194.242188 147.675781 194.433594 147.675781 194.632812 L 147.675781 226.15625 C 147.675781 226.355469 147.59375 226.546875 147.453125 226.6875 C 147.3125 226.828125 147.125 226.90625 146.925781 226.90625 L 138.582031 226.90625 C 138.382812 226.90625 138.191406 226.828125 138.050781 226.6875 C 137.910156 226.546875 137.832031 226.355469 137.832031 226.15625 L 137.832031 194.632812 C 137.832031 194.433594 137.910156 194.242188 138.050781 194.101562 C 138.191406 193.960938 138.382812 193.882812 138.582031 193.882812 Z M 138.582031 193.882812 " clip-rule="nonzero"/></clipPath><clipPath id="b346d497c1"><path d="M 126.695312 193.882812 L 138.582031 193.882812 L 138.582031 226.945312 L 126.695312 226.945312 Z M 126.695312 193.882812 " clip-rule="nonzero"/></clipPath><clipPath id="1c8580e3db"><path d="M 127.445312 193.882812 L 137.832031 193.882812 C 138.03125 193.882812 138.222656 193.960938 138.363281 194.101562 C 138.503906 194.242188 138.582031 194.433594 138.582031 194.632812 L 138.582031 226.15625 C 138.582031 226.355469 138.503906 226.546875 138.363281 226.6875 C 138.222656 226.828125 138.03125 226.90625 137.832031 226.90625 L 127.445312 226.90625 C 127.246094 226.90625 127.054688 226.828125 126.914062 226.6875 C 126.773438 226.546875 126.695312 226.355469 126.695312 226.15625 L 126.695312 194.632812 C 126.695312 194.433594 126.773438 194.242188 126.914062 194.101562 C 127.054688 193.960938 127.246094 193.882812 127.445312 193.882812 Z M 127.445312 193.882812 " clip-rule="nonzero"/></clipPath><clipPath id="e4a751eed7"><path d="M 109.355469 210.394531 L 119.195312 210.394531 L 119.195312 226.925781 L 109.355469 226.925781 Z M 109.355469 210.394531 " clip-rule="nonzero"/></clipPath><clipPath id="bb0540d148"><path d="M 110.105469 210.394531 L 118.445312 210.394531 C 118.644531 210.394531 118.835938 210.472656 118.976562 210.613281 C 119.117188 210.753906 119.195312 210.945312 119.195312 211.144531 L 119.195312 226.15625 C 119.195312 226.355469 119.117188 226.546875 118.976562 226.6875 C 118.835938 226.828125 118.644531 226.90625 118.445312 226.90625 L 110.105469 226.90625 C 109.90625 226.90625 109.714844 226.828125 109.574219 226.6875 C 109.433594 226.546875 109.355469 226.355469 109.355469 226.15625 L 109.355469 211.144531 C 109.355469 210.945312 109.433594 210.753906 109.574219 210.613281 C 109.714844 210.472656 109.90625 210.394531 110.105469 210.394531 Z M 110.105469 210.394531 " clip-rule="nonzero"/></clipPath><clipPath id="d3b5c7089e"><path d="M 98.21875 210.394531 L 110.105469 210.394531 L 110.105469 226.925781 L 98.21875 226.925781 Z M 98.21875 210.394531 " clip-rule="nonzero"/></clipPath><clipPath id="9aac2bac1b"><path d="M 98.96875 210.394531 L 109.355469 210.394531 C 109.554688 210.394531 109.746094 210.472656 109.886719 210.613281 C 110.027344 210.753906 110.105469 210.945312 110.105469 211.144531 L 110.105469 226.15625 C 110.105469 226.355469 110.027344 226.546875 109.886719 226.6875 C 109.746094 226.828125 109.554688 226.90625 109.355469 226.90625 L 98.96875 226.90625 C 98.769531 226.90625 98.578125 226.828125 98.4375 226.6875 C 98.296875 226.546875 98.21875 226.355469 98.21875 226.15625 L 98.21875 211.144531 C 98.21875 210.945312 98.296875 210.753906 98.4375 210.613281 C 98.578125 210.472656 98.769531 210.394531 98.96875 210.394531 Z M 98.96875 210.394531 " clip-rule="nonzero"/></clipPath><clipPath id="f51154561b"><path d="M 79.601562 224.730469 L 294.867188 224.730469 L 294.867188 232.308594 L 79.601562 232.308594 Z M 79.601562 224.730469 " clip-rule="nonzero"/></clipPath><clipPath id="a713c35660"><path d="M 187.234375 224.730469 C 127.792969 224.730469 79.601562 226.425781 79.601562 228.519531 C 79.601562 230.609375 127.792969 232.308594 187.234375 232.308594 C 246.675781 232.308594 294.863281 230.609375 294.863281 228.519531 C 294.863281 226.425781 246.675781 224.730469 187.234375 224.730469 Z M 187.234375 224.730469 " clip-rule="nonzero"/></clipPath><clipPath id="fc10da2f46"><path d="M 97 107 L 236.378906 107 L 236.378906 176.621094 L 97 176.621094 Z M 97 107 " clip-rule="nonzero"/></clipPath><clipPath id="bda9930e8c"><path d="M 96.128906 114.371094 L 96.128906 165.625 C 96.128906 171.839844 101.167969 176.875 107.378906 176.875 L 225.242188 176.875 C 231.453125 176.875 236.492188 171.839844 236.492188 165.625 L 236.492188 114.371094 C 236.492188 111.390625 235.304688 108.527344 233.195312 106.417969 C 231.085938 104.308594 228.226562 103.121094 225.242188 103.121094 L 107.378906 103.121094 C 101.167969 103.121094 96.128906 108.160156 96.128906 114.371094 Z M 96.128906 114.371094 " clip-rule="nonzero"/></clipPath><clipPath id="1d06ebe892"><path d="M 96.128906 103.121094 L 235 103.121094 L 235 173 L 96.128906 173 Z M 96.128906 103.121094 " clip-rule="nonzero"/></clipPath><clipPath id="ce88764e58"><path d="M 96.128906 114.371094 L 96.128906 165.625 C 96.128906 171.839844 101.167969 176.875 107.378906 176.875 L 225.242188 176.875 C 231.453125 176.875 236.492188 171.839844 236.492188 165.625 L 236.492188 114.371094 C 236.492188 111.390625 235.304688 108.527344 233.195312 106.417969 C 231.085938 104.308594 228.226562 103.121094 225.242188 103.121094 L 107.378906 103.121094 C 101.167969 103.121094 96.128906 108.160156 96.128906 114.371094 Z M 96.128906 114.371094 " clip-rule="nonzero"/></clipPath><clipPath id="0ac01e89ec"><path d="M 211.640625 155.640625 L 282.140625 155.640625 L 282.140625 226.136719 L 211.640625 226.136719 Z M 211.640625 155.640625 " clip-rule="nonzero"/></clipPath><clipPath id="2c605fa393"><path d="M 210.890625 190.898438 C 210.890625 200.449219 214.683594 209.605469 221.4375 216.359375 C 228.191406 223.113281 237.347656 226.90625 246.898438 226.90625 C 256.449219 226.90625 265.609375 223.113281 272.359375 216.359375 C 279.113281 209.605469 282.90625 200.449219 282.90625 190.898438 C 282.90625 181.347656 279.113281 172.1875 272.359375 165.433594 C 265.609375 158.683594 256.449219 154.890625 246.898438 154.890625 C 237.347656 154.890625 228.191406 158.683594 221.4375 165.433594 C 214.683594 172.1875 210.890625 181.347656 210.890625 190.898438 Z M 210.890625 190.898438 " clip-rule="nonzero"/></clipPath><clipPath id="d7c27f1476"><path d="M 246.898438 155.789062 C 256.210938 155.789062 265.140625 159.488281 271.722656 166.070312 C 278.308594 172.65625 282.007812 181.585938 282.007812 190.898438 C 282.007812 200.207031 278.308594 209.140625 271.722656 215.722656 C 265.140625 222.308594 256.210938 226.007812 246.898438 226.007812 C 237.585938 226.007812 228.65625 222.308594 222.074219 215.722656 C 215.488281 209.140625 211.789062 200.207031 211.789062 190.898438 C 211.789062 181.585938 215.488281 172.65625 222.074219 166.070312 C 228.65625 159.488281 237.585938 155.789062 246.898438 155.789062 Z M 246.898438 155.789062 " clip-rule="nonzero"/></clipPath><clipPath id="daa46a6b70"><path d="M 210.890625 154.890625 L 282.890625 154.890625 L 282.890625 226.886719 L 210.890625 226.886719 Z M 210.890625 154.890625 " clip-rule="nonzero"/></clipPath><clipPath id="ee6c55584d"><path d="M 210.890625 190.898438 C 210.890625 200.449219 214.683594 209.605469 221.4375 216.359375 C 228.191406 223.113281 237.347656 226.90625 246.898438 226.90625 C 256.449219 226.90625 265.609375 223.113281 272.359375 216.359375 C 279.113281 209.605469 282.90625 200.449219 282.90625 190.898438 C 282.90625 181.347656 279.113281 172.1875 272.359375 165.433594 C 265.609375 158.683594 256.449219 154.890625 246.898438 154.890625 C 237.347656 154.890625 228.191406 158.683594 221.4375 165.433594 C 214.683594 172.1875 210.890625 181.347656 210.890625 190.898438 Z M 210.890625 190.898438 " clip-rule="nonzero"/></clipPath><clipPath id="a428d905fa"><path d="M 210.890625 190.894531 C 210.890625 200.445312 214.683594 209.601562 221.4375 216.355469 C 228.1875 223.105469 237.347656 226.898438 246.894531 226.898438 C 256.445312 226.898438 265.601562 223.105469 272.355469 216.355469 C 279.109375 209.601562 282.902344 200.445312 282.902344 190.894531 C 282.902344 181.34375 279.109375 172.1875 272.355469 165.433594 C 265.601562 158.683594 256.445312 154.890625 246.894531 154.890625 C 237.347656 154.890625 228.1875 158.683594 221.4375 165.433594 C 214.683594 172.1875 210.890625 181.34375 210.890625 190.894531 Z M 210.890625 190.894531 " clip-rule="nonzero"/></clipPath></defs><g clip-path="url(#d14ce1d334)"><g clip-path="url(#e2bfea2707)"><path fill="#120f59" d="M 208.453125 151.59375 L 285.34375 151.59375 L 285.34375 229.386719 L 208.453125 229.386719 Z M 208.453125 151.59375 " fill-opacity="1" fill-rule="nonzero"/></g></g><g clip-path="url(#c35fe65b87)"><path fill="#55bf45" d="M 241.355469 203.066406 C 242.550781 204.339844 244.035156 205.152344 245.808594 205.496094 L 245.808594 193.402344 C 245.613281 193.328125 245.355469 193.242188 245.027344 193.140625 C 244.699219 193.046875 244.34375 192.960938 243.957031 192.882812 C 242.53125 192.5 241.121094 192.042969 239.734375 191.519531 C 238.34375 191 237.101562 190.304688 236 189.4375 C 234.898438 188.570312 234.023438 187.488281 233.371094 186.199219 C 232.714844 184.90625 232.386719 183.296875 232.386719 181.363281 C 232.386719 179.394531 232.761719 177.660156 233.515625 176.160156 C 234.265625 174.65625 235.257812 173.390625 236.492188 172.371094 C 237.726562 171.34375 239.152344 170.554688 240.773438 169.996094 C 242.394531 169.4375 244.074219 169.101562 245.808594 168.984375 L 245.808594 164.535156 L 249.222656 164.535156 L 249.222656 168.988281 C 250.957031 169.183594 252.589844 169.558594 254.113281 170.117188 C 255.636719 170.675781 256.976562 171.449219 258.132812 172.433594 C 259.289062 173.417969 260.234375 174.640625 260.96875 176.105469 C 261.703125 177.574219 262.125 179.308594 262.242188 181.3125 L 254.027344 181.3125 C 253.984375 179.769531 253.503906 178.457031 252.578125 177.378906 C 251.652344 176.296875 250.535156 175.753906 249.226562 175.753906 L 249.226562 185.996094 C 249.6875 186.113281 250.160156 186.226562 250.644531 186.34375 C 251.128906 186.460938 251.636719 186.59375 252.175781 186.746094 C 255.03125 187.519531 257.230469 188.476562 258.773438 189.613281 C 260.3125 190.75 261.453125 191.9375 262.1875 193.171875 C 262.917969 194.402344 263.351562 195.640625 263.488281 196.875 C 263.625 198.109375 263.691406 199.207031 263.691406 200.171875 C 263.691406 201.023438 263.476562 202.089844 263.054688 203.382812 C 262.628906 204.675781 261.867188 205.9375 260.769531 207.171875 C 259.667969 208.40625 258.195312 209.507812 256.339844 210.472656 C 254.488281 211.4375 252.117188 212.011719 249.226562 212.207031 L 249.226562 217.125 L 245.8125 217.125 L 245.8125 212.207031 C 241.492188 211.898438 238.117188 210.566406 235.6875 208.214844 C 233.257812 205.863281 231.847656 202.410156 231.464844 197.859375 L 239.625 197.859375 C 239.582031 200.058594 240.160156 201.792969 241.355469 203.066406 Z M 243.902344 176.046875 C 243.285156 176.238281 242.726562 176.539062 242.226562 176.941406 C 241.726562 177.347656 241.332031 177.847656 241.039062 178.445312 C 240.75 179.046875 240.605469 179.746094 240.605469 180.554688 C 240.605469 181.832031 241.007812 182.8125 241.820312 183.507812 C 242.628906 184.199219 243.960938 184.757812 245.8125 185.183594 L 245.8125 175.753906 C 245.152344 175.753906 244.519531 175.851562 243.902344 176.046875 Z M 251.394531 205.003906 C 252.148438 204.753906 252.824219 204.394531 253.417969 203.933594 C 254.015625 203.472656 254.507812 202.902344 254.894531 202.226562 C 255.277344 201.554688 255.472656 200.75 255.472656 199.824219 C 255.472656 198.320312 255 197.191406 254.054688 196.441406 C 253.113281 195.6875 251.5 195.003906 249.226562 194.386719 L 249.226562 205.496094 C 249.917969 205.417969 250.644531 205.257812 251.394531 205.003906 Z M 251.394531 205.003906 " fill-opacity="1" fill-rule="nonzero"/></g><g clip-path="url(#decc0ed97a)"><g clip-path="url(#bc616c9c72)"><path fill="#55bf45" d="M 194.152344 160.859375 L 203.214844 160.859375 L 203.214844 226.921875 L 194.152344 226.921875 Z M 194.152344 160.859375 " fill-opacity="1" fill-rule="nonzero"/></g></g><g clip-path="url(#d2738fb492)"><g clip-path="url(#b88d95313f)"><path fill="#120f59" d="M 182.902344 160.859375 L 194.753906 160.859375 L 194.753906 226.914062 L 182.902344 226.914062 Z M 182.902344 160.859375 " fill-opacity="1" fill-rule="nonzero"/></g></g><g clip-path="url(#1abdce7d69)"><g clip-path="url(#4de18a8a20)"><path fill="#55bf45" d="M 166.3125 179.125 L 175.402344 179.125 L 175.402344 226.890625 L 166.3125 226.890625 Z M 166.3125 179.125 " fill-opacity="1" fill-rule="nonzero"/></g></g><g clip-path="url(#87e7bffc52)"><g clip-path="url(#e9c37176ae)"><path fill="#120f59" d="M 155.175781 179.125 L 167.0625 179.125 L 167.0625 226.90625 L 155.175781 226.90625 Z M 155.175781 179.125 " fill-opacity="1" fill-rule="nonzero"/></g></g><g clip-path="url(#3286b9bea9)"><g clip-path="url(#1154755f59)"><path fill="#55bf45" d="M 137.832031 193.882812 L 147.675781 193.882812 L 147.675781 226.90625 L 137.832031 226.90625 Z M 137.832031 193.882812 " fill-opacity="1" fill-rule="nonzero"/></g></g><g clip-path="url(#b346d497c1)"><g clip-path="url(#1c8580e3db)"><path fill="#120f59" d="M 126.695312 193.882812 L 138.582031 193.882812 L 138.582031 226.898438 L 126.695312 226.898438 Z M 126.695312 193.882812 " fill-opacity="1" fill-rule="nonzero"/></g></g><g clip-path="url(#e4a751eed7)"><g clip-path="url(#bb0540d148)"><path fill="#55bf45" d="M 109.355469 210.394531 L 119.195312 210.394531 L 119.195312 226.925781 L 109.355469 226.925781 Z M 109.355469 210.394531 " fill-opacity="1" fill-rule="nonzero"/></g></g><g clip-path="url(#d3b5c7089e)"><g clip-path="url(#9aac2bac1b)"><path fill="#120f59" d="M 98.21875 210.394531 L 110.105469 210.394531 L 110.105469 226.925781 L 98.21875 226.925781 Z M 98.21875 210.394531 " fill-opacity="1" fill-rule="nonzero"/></g></g><g clip-path="url(#f51154561b)"><g clip-path="url(#a713c35660)"><path fill="#120f59" d="M 79.601562 224.730469 L 294.867188 224.730469 L 294.867188 232.308594 L 79.601562 232.308594 Z M 79.601562 224.730469 " fill-opacity="1" fill-rule="nonzero"/></g></g><g clip-path="url(#fc10da2f46)"><g clip-path="url(#bda9930e8c)"><path fill="#120f59" d="M 220.898438 129.640625 C 161.148438 174.105469 99.167969 176.785156 98.460938 176.816406 L 98.4375 176.816406 C 98.007812 176.824219 97.648438 176.488281 97.632812 176.058594 C 97.621094 175.707031 97.839844 175.394531 98.160156 175.285156 C 100.722656 174.371094 103.191406 173.492188 105.574219 172.640625 C 156.554688 154.507812 168.242188 150.347656 211.449219 117.046875 L 207.851562 112.253906 C 207.59375 111.90625 207.660156 111.414062 208.007812 111.152344 C 208.125 111.066406 208.257812 111.015625 208.386719 111 L 208.386719 110.996094 L 235.574219 107.710938 C 236.007812 107.660156 236.402344 107.972656 236.449219 108.40625 C 236.46875 108.5625 236.4375 108.714844 236.378906 108.84375 L 225.644531 133.992188 C 225.472656 134.390625 225.007812 134.578125 224.609375 134.40625 C 224.460938 134.34375 224.34375 134.242188 224.261719 134.117188 Z M 220.898438 129.640625 " fill-opacity="1" fill-rule="nonzero"/></g></g><g clip-path="url(#1d06ebe892)"><g clip-path="url(#ce88764e58)"><path fill="#55bf45" d="M 219.398438 125.132812 C 159.644531 169.601562 97.667969 172.28125 96.960938 172.3125 L 96.9375 172.3125 C 96.507812 172.320312 96.148438 171.984375 96.132812 171.554688 C 96.117188 171.199219 96.34375 170.890625 96.660156 170.777344 C 99.21875 169.863281 101.691406 168.988281 104.074219 168.136719 C 155.054688 150.003906 166.742188 145.839844 209.949219 112.539062 L 206.351562 107.75 C 206.09375 107.402344 206.160156 106.910156 206.507812 106.648438 C 206.621094 106.5625 206.753906 106.511719 206.886719 106.496094 L 206.886719 106.492188 L 234.074219 103.207031 C 234.507812 103.15625 234.898438 103.464844 234.949219 103.898438 C 234.96875 104.054688 234.941406 104.210938 234.875 104.339844 L 224.144531 129.484375 C 223.972656 129.886719 223.507812 130.074219 223.109375 129.902344 C 222.960938 129.839844 222.84375 129.738281 222.761719 129.613281 Z M 219.398438 125.132812 " fill-opacity="1" fill-rule="nonzero"/></g></g><g clip-path="url(#0ac01e89ec)"><g clip-path="url(#2c605fa393)"><g clip-path="url(#d7c27f1476)"><path fill="#55bf45" d="M 246.894531 154.890625 C 227.03125 154.890625 210.890625 171.027344 210.890625 190.894531 C 210.890625 210.761719 227.03125 226.898438 246.894531 226.898438 C 266.761719 226.898438 282.902344 210.761719 282.902344 190.894531 C 282.902344 171.027344 266.761719 154.890625 246.894531 154.890625 Z M 246.894531 156.453125 C 265.9375 156.453125 281.335938 171.855469 281.335938 190.894531 C 281.335938 209.933594 265.9375 225.335938 246.894531 225.335938 C 227.855469 225.335938 212.457031 209.933594 212.457031 190.894531 C 212.457031 171.855469 227.855469 156.453125 246.894531 156.453125 Z M 246.894531 156.453125 " fill-opacity="1" fill-rule="nonzero"/></g></g></g><g clip-path="url(#daa46a6b70)"><g clip-path="url(#ee6c55584d)"><g clip-path="url(#a428d905fa)"><path stroke-linecap="butt" transform="matrix(0.75, 0, 0, 0.75, 210.889853, 154.888672)" fill="none" stroke-linejoin="miter" d="M 0.00102926 48.007815 C 0.00102926 60.742191 5.058321 72.950525 14.06353 81.955734 C 23.063531 90.955735 35.277073 96.013027 48.006241 96.013027 C 60.740617 96.013027 72.948951 90.955735 81.95416 81.955734 C 90.959369 72.950525 96.016661 60.742191 96.016661 48.007815 C 96.016661 35.273439 90.959369 23.065105 81.95416 14.059896 C 72.948951 5.059896 60.740617 0.00260369 48.006241 0.00260369 C 35.277073 0.00260369 23.063531 5.059896 14.06353 14.059896 C 5.058321 23.065105 0.00102926 35.273439 0.00102926 48.007815 Z M 0.00102926 48.007815 " stroke="#55bf45" stroke-width="8" stroke-opacity="1" stroke-miterlimit="4"/></g></g></g><g fill="#120f59" fill-opacity="1"><g transform="translate(79.603154, 262.956969)"><g><path d="M 15.15625 -4.8125 L 5.734375 -4.8125 L 4 0 L 1.015625 0 L 8.828125 -21.484375 L 12.09375 -21.484375 L 19.875 0 L 16.890625 0 Z M 14.359375 -7.09375 L 10.453125 -18.015625 L 6.546875 -7.09375 Z M 14.359375 -7.09375 "/></g></g></g><g fill="#120f59" fill-opacity="1"><g transform="translate(100.494548, 262.956969)"><g><path d="M 16.828125 -15.28125 C 16.828125 -13.488281 16.210938 -11.992188 14.984375 -10.796875 C 13.753906 -9.609375 11.878906 -9.015625 9.359375 -9.015625 L 5.203125 -9.015625 L 5.203125 0 L 2.390625 0 L 2.390625 -21.609375 L 9.359375 -21.609375 C 11.796875 -21.609375 13.648438 -21.019531 14.921875 -19.84375 C 16.191406 -18.664062 16.828125 -17.144531 16.828125 -15.28125 Z M 9.359375 -11.34375 C 10.929688 -11.34375 12.085938 -11.679688 12.828125 -12.359375 C 13.578125 -13.046875 13.953125 -14.019531 13.953125 -15.28125 C 13.953125 -17.945312 12.421875 -19.28125 9.359375 -19.28125 L 5.203125 -19.28125 L 5.203125 -11.34375 Z M 9.359375 -11.34375 "/></g></g></g><g fill="#120f59" fill-opacity="1"><g transform="translate(118.441309, 262.956969)"><g><path d="M 13.765625 0 L 8.625 -8.828125 L 5.203125 -8.828125 L 5.203125 0 L 2.390625 0 L 2.390625 -21.609375 L 9.359375 -21.609375 C 10.992188 -21.609375 12.375 -21.328125 13.5 -20.765625 C 14.625 -20.210938 15.460938 -19.457031 16.015625 -18.5 C 16.578125 -17.550781 16.859375 -16.46875 16.859375 -15.25 C 16.859375 -13.757812 16.429688 -12.445312 15.578125 -11.3125 C 14.722656 -10.175781 13.4375 -9.421875 11.71875 -9.046875 L 17.140625 0 Z M 5.203125 -11.09375 L 9.359375 -11.09375 C 10.890625 -11.09375 12.035156 -11.46875 12.796875 -12.21875 C 13.566406 -12.976562 13.953125 -13.988281 13.953125 -15.25 C 13.953125 -16.53125 13.570312 -17.519531 12.8125 -18.21875 C 12.0625 -18.925781 10.910156 -19.28125 9.359375 -19.28125 L 5.203125 -19.28125 Z M 5.203125 -11.09375 "/></g></g></g><g fill="#120f59" fill-opacity="1"><g transform="translate(137.286968, 262.956969)"><g><path d="M 5.140625 -21.609375 L 5.140625 -7.9375 C 5.140625 -6.007812 5.609375 -4.582031 6.546875 -3.65625 C 7.492188 -2.726562 8.804688 -2.265625 10.484375 -2.265625 C 12.128906 -2.265625 13.421875 -2.726562 14.359375 -3.65625 C 15.304688 -4.582031 15.78125 -6.007812 15.78125 -7.9375 L 15.78125 -21.609375 L 18.59375 -21.609375 L 18.59375 -7.96875 C 18.59375 -6.164062 18.234375 -4.648438 17.515625 -3.421875 C 16.796875 -2.191406 15.816406 -1.273438 14.578125 -0.671875 C 13.347656 -0.078125 11.972656 0.21875 10.453125 0.21875 C 8.921875 0.21875 7.539062 -0.078125 6.3125 -0.671875 C 5.082031 -1.273438 4.109375 -2.191406 3.390625 -3.421875 C 2.679688 -4.648438 2.328125 -6.164062 2.328125 -7.96875 L 2.328125 -21.609375 Z M 5.140625 -21.609375 "/></g></g></g><g fill="#120f59" fill-opacity="1"><g transform="translate(158.209365, 262.956969)"><g><path d="M 24.296875 -21.453125 L 24.296875 0 L 21.484375 0 L 21.484375 -16 L 14.359375 0 L 12.375 0 L 5.203125 -16.03125 L 5.203125 0 L 2.390625 0 L 2.390625 -21.453125 L 5.421875 -21.453125 L 13.359375 -3.71875 L 21.296875 -21.453125 Z M 24.296875 -21.453125 "/></g></g></g><g fill="#120f59" fill-opacity="1"><g transform="translate(184.897042, 262.956969)"><g><path d="M 15.15625 -4.8125 L 5.734375 -4.8125 L 4 0 L 1.015625 0 L 8.828125 -21.484375 L 12.09375 -21.484375 L 19.875 0 L 16.890625 0 Z M 14.359375 -7.09375 L 10.453125 -18.015625 L 6.546875 -7.09375 Z M 14.359375 -7.09375 "/></g></g></g><g fill="#120f59" fill-opacity="1"><g transform="translate(206.669463, 262.95694)"><g><path d="M 1.015625 -10.90625 C 1.015625 -13.0625 1.476562 -14.976562 2.40625 -16.65625 C 3.34375 -18.34375 4.640625 -19.65625 6.296875 -20.59375 C 7.960938 -21.539062 9.851562 -22.015625 11.96875 -22.015625 C 14.550781 -22.015625 16.757812 -21.332031 18.59375 -19.96875 C 20.4375 -18.601562 21.664062 -16.742188 22.28125 -14.390625 L 16.46875 -14.390625 C 16.03125 -15.296875 15.410156 -15.984375 14.609375 -16.453125 C 13.816406 -16.929688 12.914062 -17.171875 11.90625 -17.171875 C 10.269531 -17.171875 8.945312 -16.601562 7.9375 -15.46875 C 6.925781 -14.332031 6.421875 -12.8125 6.421875 -10.90625 C 6.421875 -9.007812 6.925781 -7.492188 7.9375 -6.359375 C 8.945312 -5.222656 10.269531 -4.65625 11.90625 -4.65625 C 12.914062 -4.65625 13.816406 -4.890625 14.609375 -5.359375 C 15.410156 -5.835938 16.03125 -6.53125 16.46875 -7.4375 L 22.28125 -7.4375 C 21.664062 -5.082031 20.4375 -3.226562 18.59375 -1.875 C 16.757812 -0.519531 14.550781 0.15625 11.96875 0.15625 C 9.851562 0.15625 7.960938 -0.3125 6.296875 -1.25 C 4.640625 -2.195312 3.34375 -3.503906 2.40625 -5.171875 C 1.476562 -6.847656 1.015625 -8.757812 1.015625 -10.90625 Z M 1.015625 -10.90625 "/></g></g></g><g fill="#120f59" fill-opacity="1"><g transform="translate(230.288522, 262.95694)"><g><path d="M 15.46875 -3.84375 L 7.34375 -3.84375 L 6.046875 0 L 0.5 0 L 8.375 -21.765625 L 14.515625 -21.765625 L 22.375 0 L 16.765625 0 Z M 14.109375 -7.9375 L 11.40625 -15.90625 L 8.734375 -7.9375 Z M 14.109375 -7.9375 "/></g></g></g><g fill="#120f59" fill-opacity="1"><g transform="translate(253.132679, 262.95694)"><g><path d="M 9.796875 0.21875 C 8.203125 0.21875 6.773438 -0.0351562 5.515625 -0.546875 C 4.253906 -1.066406 3.242188 -1.832031 2.484375 -2.84375 C 1.734375 -3.863281 1.335938 -5.085938 1.296875 -6.515625 L 6.9375 -6.515625 C 7.019531 -5.703125 7.300781 -5.082031 7.78125 -4.65625 C 8.257812 -4.238281 8.878906 -4.03125 9.640625 -4.03125 C 10.421875 -4.03125 11.039062 -4.207031 11.5 -4.5625 C 11.957031 -4.925781 12.1875 -5.429688 12.1875 -6.078125 C 12.1875 -6.609375 12.003906 -7.050781 11.640625 -7.40625 C 11.273438 -7.757812 10.828125 -8.050781 10.296875 -8.28125 C 9.773438 -8.507812 9.03125 -8.765625 8.0625 -9.046875 C 6.65625 -9.484375 5.503906 -9.914062 4.609375 -10.34375 C 3.722656 -10.78125 2.957031 -11.421875 2.3125 -12.265625 C 1.675781 -13.117188 1.359375 -14.226562 1.359375 -15.59375 C 1.359375 -17.613281 2.09375 -19.195312 3.5625 -20.34375 C 5.03125 -21.5 6.941406 -22.078125 9.296875 -22.078125 C 11.691406 -22.078125 13.625 -21.5 15.09375 -20.34375 C 16.5625 -19.195312 17.347656 -17.601562 17.453125 -15.5625 L 11.71875 -15.5625 C 11.675781 -16.257812 11.414062 -16.8125 10.9375 -17.21875 C 10.46875 -17.625 9.859375 -17.828125 9.109375 -17.828125 C 8.472656 -17.828125 7.957031 -17.65625 7.5625 -17.3125 C 7.164062 -16.96875 6.96875 -16.476562 6.96875 -15.84375 C 6.96875 -15.132812 7.296875 -14.582031 7.953125 -14.1875 C 8.617188 -13.800781 9.65625 -13.378906 11.0625 -12.921875 C 12.46875 -12.453125 13.609375 -12 14.484375 -11.5625 C 15.367188 -11.125 16.128906 -10.492188 16.765625 -9.671875 C 17.410156 -8.847656 17.734375 -7.785156 17.734375 -6.484375 C 17.734375 -5.242188 17.414062 -4.113281 16.78125 -3.09375 C 16.15625 -2.082031 15.242188 -1.273438 14.046875 -0.671875 C 12.847656 -0.078125 11.429688 0.21875 9.796875 0.21875 Z M 9.796875 0.21875 "/></g></g></g><g fill="#120f59" fill-opacity="1"><g transform="translate(272.195308, 262.95694)"><g><path d="M 20.765625 -21.765625 L 20.765625 0 L 15.46875 0 L 15.46875 -8.953125 L 7.21875 -8.953125 L 7.21875 0 L 1.921875 0 L 1.921875 -21.765625 L 7.21875 -21.765625 L 7.21875 -13.234375 L 15.46875 -13.234375 L 15.46875 -21.765625 Z M 20.765625 -21.765625 "/></g></g></g></svg>