<svg xmlns="http://www.w3.org/2000/svg" xmlns:xlink="http://www.w3.org/1999/xlink" width="500" zoomAndPan="magnify" viewBox="0 0 375 374.999991" height="500" preserveAspectRatio="xMidYMid meet" version="1.0"><defs><g/><clipPath id="38206b9df2"><path d="M 224.464844 125.621094 L 358.414062 125.621094 L 358.414062 261 L 224.464844 261 Z M 224.464844 125.621094 " clip-rule="nonzero"/></clipPath><clipPath id="bc7969998f"><path d="M 291.441406 125.621094 C 254.449219 125.621094 224.464844 155.914062 224.464844 193.277344 C 224.464844 230.644531 254.449219 260.933594 291.441406 260.933594 C 328.429688 260.933594 358.414062 230.644531 358.414062 193.277344 C 358.414062 155.914062 328.429688 125.621094 291.441406 125.621094 Z M 291.441406 125.621094 " clip-rule="nonzero"/></clipPath><clipPath id="a6ae640252"><path d="M 264.066406 148.203125 L 321 148.203125 L 321 239.660156 L 264.066406 239.660156 Z M 264.066406 148.203125 " clip-rule="nonzero"/></clipPath><clipPath id="22fdc50032"><path d="M 199.550781 141.761719 L 215.339844 141.761719 L 215.339844 256.84375 L 199.550781 256.84375 Z M 199.550781 141.761719 " clip-rule="nonzero"/></clipPath><clipPath id="b536791e91"><path d="M 200.300781 141.761719 L 214.589844 141.761719 C 214.789062 141.761719 214.980469 141.839844 215.121094 141.980469 C 215.261719 142.121094 215.339844 142.3125 215.339844 142.511719 L 215.339844 256.070312 C 215.339844 256.269531 215.261719 256.457031 215.121094 256.597656 C 214.980469 256.738281 214.789062 256.820312 214.589844 256.820312 L 200.300781 256.820312 C 200.101562 256.820312 199.914062 256.738281 199.773438 256.597656 C 199.632812 256.457031 199.550781 256.269531 199.550781 256.070312 L 199.550781 142.511719 C 199.550781 142.3125 199.632812 142.121094 199.773438 141.980469 C 199.914062 141.839844 200.101562 141.761719 200.300781 141.761719 Z M 200.300781 141.761719 " clip-rule="nonzero"/></clipPath><clipPath id="26eca0c7b8"><path d="M 179.875 141.683594 L 200.597656 141.683594 L 200.597656 256.835938 L 179.875 256.835938 Z M 179.875 141.683594 " clip-rule="nonzero"/></clipPath><clipPath id="d98fd5d078"><path d="M 180.703125 141.761719 L 199.847656 141.761719 C 200.046875 141.761719 200.238281 141.839844 200.378906 141.980469 C 200.519531 142.121094 200.597656 142.3125 200.597656 142.511719 L 200.597656 256.070312 C 200.597656 256.269531 200.519531 256.457031 200.378906 256.597656 C 200.238281 256.738281 200.046875 256.820312 199.847656 256.820312 L 180.703125 256.820312 C 180.503906 256.820312 180.3125 256.738281 180.171875 256.597656 C 180.03125 256.457031 179.953125 256.269531 179.953125 256.070312 L 179.953125 142.511719 C 179.953125 142.3125 180.03125 142.121094 180.171875 141.980469 C 180.3125 141.839844 180.503906 141.761719 180.703125 141.761719 Z M 180.703125 141.761719 " clip-rule="nonzero"/></clipPath><clipPath id="6d4468b330"><path d="M 151.050781 173.582031 L 166.886719 173.582031 L 166.886719 256.851562 L 151.050781 256.851562 Z M 151.050781 173.582031 " clip-rule="nonzero"/></clipPath><clipPath id="1b3f751fdd"><path d="M 151.800781 173.582031 L 166.136719 173.582031 C 166.335938 173.582031 166.527344 173.660156 166.667969 173.800781 C 166.808594 173.941406 166.886719 174.132812 166.886719 174.332031 L 166.886719 256.070312 C 166.886719 256.269531 166.808594 256.457031 166.667969 256.597656 C 166.527344 256.738281 166.335938 256.820312 166.136719 256.820312 L 151.800781 256.820312 C 151.601562 256.820312 151.410156 256.738281 151.269531 256.597656 C 151.128906 256.457031 151.050781 256.269531 151.050781 256.070312 L 151.050781 174.332031 C 151.050781 174.132812 151.128906 173.941406 151.269531 173.800781 C 151.410156 173.660156 151.601562 173.582031 151.800781 173.582031 Z M 151.800781 173.582031 " clip-rule="nonzero"/></clipPath><clipPath id="8d928fb4b9"><path d="M 131.648438 173.582031 L 152.359375 173.582031 L 152.359375 256.820312 L 131.648438 256.820312 Z M 131.648438 173.582031 " clip-rule="nonzero"/></clipPath><clipPath id="736f2fe937"><path d="M 132.398438 173.582031 L 151.609375 173.582031 C 151.804688 173.582031 151.996094 173.660156 152.136719 173.800781 C 152.277344 173.941406 152.359375 174.132812 152.359375 174.332031 L 152.359375 256.070312 C 152.359375 256.269531 152.277344 256.457031 152.136719 256.597656 C 151.996094 256.738281 151.804688 256.820312 151.609375 256.820312 L 132.398438 256.820312 C 132.199219 256.820312 132.011719 256.738281 131.871094 256.597656 C 131.730469 256.457031 131.648438 256.269531 131.648438 256.070312 L 131.648438 174.332031 C 131.648438 174.132812 131.730469 173.941406 131.871094 173.800781 C 132.011719 173.660156 132.199219 173.582031 132.398438 173.582031 Z M 132.398438 173.582031 " clip-rule="nonzero"/></clipPath><clipPath id="6024a6830f"><path d="M 101.441406 199.289062 L 118.585938 199.289062 L 118.585938 256.882812 L 101.441406 256.882812 Z M 101.441406 199.289062 " clip-rule="nonzero"/></clipPath><clipPath id="53049a5622"><path d="M 102.191406 199.289062 L 117.835938 199.289062 C 118.03125 199.289062 118.222656 199.371094 118.363281 199.511719 C 118.503906 199.652344 118.585938 199.839844 118.585938 200.039062 L 118.585938 256.070312 C 118.585938 256.269531 118.503906 256.457031 118.363281 256.597656 C 118.222656 256.738281 118.03125 256.820312 117.835938 256.820312 L 102.191406 256.820312 C 101.992188 256.820312 101.800781 256.738281 101.660156 256.597656 C 101.519531 256.457031 101.441406 256.269531 101.441406 256.070312 L 101.441406 200.039062 C 101.441406 199.839844 101.519531 199.652344 101.660156 199.511719 C 101.800781 199.371094 101.992188 199.289062 102.191406 199.289062 Z M 102.191406 199.289062 " clip-rule="nonzero"/></clipPath><clipPath id="4b9052adf7"><path d="M 82.039062 199.289062 L 102.746094 199.289062 L 102.746094 256.882812 L 82.039062 256.882812 Z M 82.039062 199.289062 " clip-rule="nonzero"/></clipPath><clipPath id="6b344bfe5d"><path d="M 82.789062 199.289062 L 101.996094 199.289062 C 102.195312 199.289062 102.386719 199.371094 102.527344 199.511719 C 102.667969 199.652344 102.746094 199.839844 102.746094 200.039062 L 102.746094 256.070312 C 102.746094 256.269531 102.667969 256.457031 102.527344 256.597656 C 102.386719 256.738281 102.195312 256.820312 101.996094 256.820312 L 82.789062 256.820312 C 82.589844 256.820312 82.398438 256.738281 82.257812 256.597656 C 82.117188 256.457031 82.039062 256.269531 82.039062 256.070312 L 82.039062 200.039062 C 82.039062 199.839844 82.117188 199.652344 82.257812 199.511719 C 82.398438 199.371094 82.589844 199.289062 82.789062 199.289062 Z M 82.789062 199.289062 " clip-rule="nonzero"/></clipPath><clipPath id="3e5a3633ad"><path d="M 51.828125 228.054688 L 68.972656 228.054688 L 68.972656 256.851562 L 51.828125 256.851562 Z M 51.828125 228.054688 " clip-rule="nonzero"/></clipPath><clipPath id="ebf93098ec"><path d="M 52.578125 228.054688 L 68.222656 228.054688 C 68.421875 228.054688 68.613281 228.132812 68.753906 228.273438 C 68.894531 228.414062 68.972656 228.605469 68.972656 228.804688 L 68.972656 256.070312 C 68.972656 256.269531 68.894531 256.457031 68.753906 256.597656 C 68.613281 256.738281 68.421875 256.820312 68.222656 256.820312 L 52.578125 256.820312 C 52.378906 256.820312 52.191406 256.738281 52.050781 256.597656 C 51.910156 256.457031 51.828125 256.269531 51.828125 256.070312 L 51.828125 228.804688 C 51.828125 228.605469 51.910156 228.414062 52.050781 228.273438 C 52.191406 228.132812 52.378906 228.054688 52.578125 228.054688 Z M 52.578125 228.054688 " clip-rule="nonzero"/></clipPath><clipPath id="6e227d7148"><path d="M 32.429688 228.054688 L 53.136719 228.054688 L 53.136719 256.851562 L 32.429688 256.851562 Z M 32.429688 228.054688 " clip-rule="nonzero"/></clipPath><clipPath id="9e2672913b"><path d="M 33.179688 228.054688 L 52.386719 228.054688 C 52.585938 228.054688 52.777344 228.132812 52.917969 228.273438 C 53.058594 228.414062 53.136719 228.605469 53.136719 228.804688 L 53.136719 256.070312 C 53.136719 256.269531 53.058594 256.457031 52.917969 256.597656 C 52.777344 256.738281 52.585938 256.820312 52.386719 256.820312 L 33.179688 256.820312 C 32.980469 256.820312 32.789062 256.738281 32.648438 256.597656 C 32.507812 256.457031 32.429688 256.269531 32.429688 256.070312 L 32.429688 228.804688 C 32.429688 228.605469 32.507812 228.414062 32.648438 228.273438 C 32.789062 228.132812 32.980469 228.054688 33.179688 228.054688 Z M 33.179688 228.054688 " clip-rule="nonzero"/></clipPath><clipPath id="03feb24a17"><path d="M 0 253.027344 L 375 253.027344 L 375 266.226562 L 0 266.226562 Z M 0 253.027344 " clip-rule="nonzero"/></clipPath><clipPath id="8e227d2332"><path d="M 187.5 253.027344 C 83.945312 253.027344 0 255.984375 0 259.628906 C 0 263.273438 83.945312 266.226562 187.5 266.226562 C 291.054688 266.226562 375 263.273438 375 259.628906 C 375 255.984375 291.054688 253.027344 187.5 253.027344 Z M 187.5 253.027344 " clip-rule="nonzero"/></clipPath><clipPath id="0ca8a4b212"><path d="M 31 49 L 273.117188 49 L 273.117188 169.222656 L 31 169.222656 Z M 31 49 " clip-rule="nonzero"/></clipPath><clipPath id="02baaa9b7f"><path d="M 28.792969 52.429688 L 28.792969 158.414062 C 28.792969 164.625 33.828125 169.664062 40.042969 169.664062 L 262.058594 169.664062 C 268.273438 169.664062 273.308594 164.625 273.308594 158.414062 L 273.308594 52.429688 C 273.308594 46.21875 268.273438 41.179688 262.058594 41.179688 L 40.042969 41.179688 C 33.828125 41.179688 28.792969 46.21875 28.792969 52.429688 Z M 28.792969 52.429688 " clip-rule="nonzero"/></clipPath><clipPath id="153a1dfda4"><path d="M 28.792969 41.179688 L 271 41.179688 L 271 162 L 28.792969 162 Z M 28.792969 41.179688 " clip-rule="nonzero"/></clipPath><clipPath id="8096f96504"><path d="M 28.792969 52.429688 L 28.792969 158.414062 C 28.792969 164.625 33.828125 169.664062 40.042969 169.664062 L 262.058594 169.664062 C 268.273438 169.664062 273.308594 164.625 273.308594 158.414062 L 273.308594 52.429688 C 273.308594 46.21875 268.273438 41.179688 262.058594 41.179688 L 40.042969 41.179688 C 33.828125 41.179688 28.792969 46.21875 28.792969 52.429688 Z M 28.792969 52.429688 " clip-rule="nonzero"/></clipPath><clipPath id="7b94f723b6"><path d="M 230.015625 132.667969 L 352.832031 132.667969 L 352.832031 255.480469 L 230.015625 255.480469 Z M 230.015625 132.667969 " clip-rule="nonzero"/></clipPath><clipPath id="b9d8e75d4c"><path d="M 228.710938 194.089844 C 228.710938 210.726562 235.320312 226.683594 247.082031 238.445312 C 258.847656 250.210938 274.800781 256.820312 291.441406 256.820312 C 308.078125 256.820312 324.03125 250.210938 335.796875 238.445312 C 347.558594 226.683594 354.167969 210.726562 354.167969 194.089844 C 354.167969 177.453125 347.558594 161.496094 335.796875 149.734375 C 324.03125 137.96875 308.078125 131.359375 291.441406 131.359375 C 274.800781 131.359375 258.847656 137.96875 247.082031 149.734375 C 235.320312 161.496094 228.710938 177.453125 228.710938 194.089844 Z M 228.710938 194.089844 " clip-rule="nonzero"/></clipPath><clipPath id="cb49af9160"><path d="M 291.441406 132.929688 C 307.660156 132.929688 323.21875 139.371094 334.6875 150.839844 C 346.15625 162.3125 352.601562 177.867188 352.601562 194.089844 C 352.601562 210.308594 346.15625 225.867188 334.6875 237.335938 C 323.21875 248.808594 307.660156 255.25 291.441406 255.25 C 275.21875 255.25 259.660156 248.808594 248.191406 237.335938 C 236.722656 225.867188 230.277344 210.308594 230.277344 194.089844 C 230.277344 177.867188 236.722656 162.3125 248.191406 150.839844 C 259.660156 139.371094 275.21875 132.929688 291.441406 132.929688 Z M 291.441406 132.929688 " clip-rule="nonzero"/></clipPath><clipPath id="8e4d4333dc"><path d="M 228.710938 131.359375 L 354.140625 131.359375 L 354.140625 256.789062 L 228.710938 256.789062 Z M 228.710938 131.359375 " clip-rule="nonzero"/></clipPath><clipPath id="6343d357db"><path d="M 228.710938 194.089844 C 228.710938 210.726562 235.320312 226.683594 247.082031 238.445312 C 258.847656 250.210938 274.800781 256.820312 291.441406 256.820312 C 308.078125 256.820312 324.03125 250.210938 335.796875 238.445312 C 347.558594 226.683594 354.167969 210.726562 354.167969 194.089844 C 354.167969 177.453125 347.558594 161.496094 335.796875 149.734375 C 324.03125 137.96875 308.078125 131.359375 291.441406 131.359375 C 274.800781 131.359375 258.847656 137.96875 247.082031 149.734375 C 235.320312 161.496094 228.710938 177.453125 228.710938 194.089844 Z M 228.710938 194.089844 " clip-rule="nonzero"/></clipPath><clipPath id="ee295ace76"><path d="M 228.710938 194.085938 C 228.710938 210.71875 235.320312 226.675781 247.082031 238.4375 C 258.84375 250.199219 274.800781 256.808594 291.433594 256.808594 C 308.070312 256.808594 324.023438 250.199219 335.789062 238.4375 C 347.550781 226.675781 354.160156 210.71875 354.160156 194.085938 C 354.160156 177.449219 347.550781 161.496094 335.789062 149.730469 C 324.023438 137.96875 308.070312 131.359375 291.433594 131.359375 C 274.800781 131.359375 258.84375 137.96875 247.082031 149.730469 C 235.320312 161.496094 228.710938 177.449219 228.710938 194.085938 Z M 228.710938 194.085938 " clip-rule="nonzero"/></clipPath></defs><g clip-path="url(#38206b9df2)"><g clip-path="url(#bc7969998f)"><path fill="#120f59" d="M 224.464844 125.621094 L 358.414062 125.621094 L 358.414062 261.144531 L 224.464844 261.144531 Z M 224.464844 125.621094 " fill-opacity="1" fill-rule="nonzero"/></g></g><g clip-path="url(#a6ae640252)"><path fill="#55bf45" d="M 281.78125 215.289062 C 283.863281 217.507812 286.449219 218.921875 289.542969 219.519531 L 289.542969 198.453125 C 289.203125 198.320312 288.753906 198.171875 288.179688 198 C 287.609375 197.832031 286.984375 197.679688 286.316406 197.546875 C 283.828125 196.878906 281.375 196.082031 278.957031 195.175781 C 276.539062 194.269531 274.371094 193.058594 272.453125 191.546875 C 270.539062 190.035156 269.007812 188.152344 267.871094 185.902344 C 266.730469 183.652344 266.15625 180.847656 266.15625 177.480469 C 266.15625 174.054688 266.816406 171.03125 268.125 168.414062 C 269.433594 165.792969 271.160156 163.589844 273.3125 161.8125 C 275.460938 160.027344 277.949219 158.648438 280.769531 157.679688 C 283.59375 156.703125 286.519531 156.121094 289.542969 155.914062 L 289.542969 148.164062 L 295.488281 148.164062 L 295.488281 155.925781 C 298.511719 156.261719 301.351562 156.917969 304.003906 157.886719 C 306.660156 158.863281 308.996094 160.207031 311.011719 161.921875 C 313.027344 163.636719 314.671875 165.773438 315.953125 168.324219 C 317.226562 170.878906 317.964844 173.902344 318.167969 177.394531 L 303.855469 177.394531 C 303.785156 174.707031 302.949219 172.421875 301.332031 170.539062 C 299.722656 168.65625 297.773438 167.710938 295.492188 167.710938 L 295.492188 185.550781 C 296.300781 185.753906 297.121094 185.953125 297.964844 186.15625 C 298.804688 186.359375 299.695312 186.59375 300.636719 186.859375 C 305.609375 188.203125 309.4375 189.871094 312.125 191.851562 C 314.808594 193.832031 316.796875 195.902344 318.070312 198.050781 C 319.347656 200.199219 320.101562 202.351562 320.339844 204.503906 C 320.574219 206.65625 320.691406 208.566406 320.691406 210.246094 C 320.691406 211.730469 320.320312 213.585938 319.582031 215.839844 C 318.84375 218.09375 317.515625 220.289062 315.601562 222.441406 C 313.683594 224.59375 311.117188 226.507812 307.890625 228.1875 C 304.664062 229.867188 300.53125 230.871094 295.492188 231.214844 L 295.492188 239.777344 L 289.546875 239.777344 L 289.546875 231.214844 C 282.023438 230.675781 276.140625 228.355469 271.910156 224.257812 C 267.675781 220.160156 265.222656 214.148438 264.554688 206.21875 L 278.769531 206.21875 C 278.691406 210.050781 279.703125 213.066406 281.78125 215.289062 Z M 286.21875 168.21875 C 285.144531 168.554688 284.167969 169.078125 283.296875 169.777344 C 282.425781 170.488281 281.738281 171.359375 281.230469 172.398438 C 280.730469 173.441406 280.476562 174.664062 280.476562 176.074219 C 280.476562 178.296875 281.179688 180.003906 282.59375 181.214844 C 284.003906 182.421875 286.324219 183.398438 289.546875 184.136719 L 289.546875 167.710938 C 288.398438 167.710938 287.292969 167.878906 286.21875 168.21875 Z M 299.273438 218.667969 C 300.582031 218.226562 301.761719 217.605469 302.800781 216.800781 C 303.839844 216 304.699219 215 305.367188 213.824219 C 306.039062 212.652344 306.378906 211.253906 306.378906 209.640625 C 306.378906 207.019531 305.550781 205.058594 303.90625 203.746094 C 302.261719 202.4375 299.457031 201.242188 295.492188 200.167969 L 295.492188 219.519531 C 296.699219 219.386719 297.964844 219.105469 299.273438 218.667969 Z M 299.273438 218.667969 " fill-opacity="1" fill-rule="nonzero"/></g><g clip-path="url(#22fdc50032)"><g clip-path="url(#b536791e91)"><path fill="#55bf45" d="M 199.550781 141.761719 L 215.339844 141.761719 L 215.339844 256.84375 L 199.550781 256.84375 Z M 199.550781 141.761719 " fill-opacity="1" fill-rule="nonzero"/></g></g><g clip-path="url(#26eca0c7b8)"><g clip-path="url(#d98fd5d078)"><path fill="#120f59" d="M 179.953125 141.761719 L 200.597656 141.761719 L 200.597656 256.835938 L 179.953125 256.835938 Z M 179.953125 141.761719 " fill-opacity="1" fill-rule="nonzero"/></g></g><g clip-path="url(#6d4468b330)"><g clip-path="url(#1b3f751fdd)"><path fill="#55bf45" d="M 151.050781 173.582031 L 166.886719 173.582031 L 166.886719 256.792969 L 151.050781 256.792969 Z M 151.050781 173.582031 " fill-opacity="1" fill-rule="nonzero"/></g></g><g clip-path="url(#8d928fb4b9)"><g clip-path="url(#736f2fe937)"><path fill="#120f59" d="M 131.648438 173.582031 L 152.359375 173.582031 L 152.359375 256.820312 L 131.648438 256.820312 Z M 131.648438 173.582031 " fill-opacity="1" fill-rule="nonzero"/></g></g><g clip-path="url(#6024a6830f)"><g clip-path="url(#53049a5622)"><path fill="#55bf45" d="M 101.441406 199.289062 L 118.585938 199.289062 L 118.585938 256.816406 L 101.441406 256.816406 Z M 101.441406 199.289062 " fill-opacity="1" fill-rule="nonzero"/></g></g><g clip-path="url(#4b9052adf7)"><g clip-path="url(#6b344bfe5d)"><path fill="#120f59" d="M 82.039062 199.289062 L 102.746094 199.289062 L 102.746094 256.804688 L 82.039062 256.804688 Z M 82.039062 199.289062 " fill-opacity="1" fill-rule="nonzero"/></g></g><g clip-path="url(#3e5a3633ad)"><g clip-path="url(#ebf93098ec)"><path fill="#55bf45" d="M 51.828125 228.054688 L 68.972656 228.054688 L 68.972656 256.851562 L 51.828125 256.851562 Z M 51.828125 228.054688 " fill-opacity="1" fill-rule="nonzero"/></g></g><g clip-path="url(#6e227d7148)"><g clip-path="url(#9e2672913b)"><path fill="#120f59" d="M 32.429688 228.054688 L 53.136719 228.054688 L 53.136719 256.851562 L 32.429688 256.851562 Z M 32.429688 228.054688 " fill-opacity="1" fill-rule="nonzero"/></g></g><g clip-path="url(#03feb24a17)"><g clip-path="url(#8e227d2332)"><path fill="#120f59" d="M 0 253.027344 L 375.003906 253.027344 L 375.003906 266.226562 L 0 266.226562 Z M 0 253.027344 " fill-opacity="1" fill-rule="nonzero"/></g></g><g clip-path="url(#0ca8a4b212)"><g clip-path="url(#02baaa9b7f)"><path fill="#120f59" d="M 246.144531 87.375 C 142.054688 164.835938 34.082031 169.503906 32.847656 169.558594 L 32.808594 169.558594 C 32.0625 169.574219 31.4375 168.988281 31.410156 168.238281 C 31.386719 167.625 31.769531 167.085938 32.324219 166.890625 C 36.789062 165.296875 41.09375 163.765625 45.242188 162.289062 C 134.050781 130.699219 154.414062 123.445312 229.683594 65.433594 L 223.417969 57.089844 C 222.964844 56.484375 223.085938 55.625 223.691406 55.167969 C 223.890625 55.019531 224.121094 54.933594 224.351562 54.902344 L 224.351562 54.894531 L 271.714844 49.175781 C 272.46875 49.085938 273.152344 49.625 273.238281 50.382812 C 273.269531 50.652344 273.21875 50.921875 273.109375 51.148438 L 254.410156 94.953125 C 254.113281 95.652344 253.308594 95.976562 252.609375 95.679688 C 252.351562 95.570312 252.148438 95.390625 252.003906 95.175781 Z M 246.144531 87.375 " fill-opacity="1" fill-rule="nonzero"/></g></g><g clip-path="url(#153a1dfda4)"><g clip-path="url(#8096f96504)"><path fill="#55bf45" d="M 243.527344 79.527344 C 139.433594 156.988281 31.46875 161.65625 30.234375 161.710938 L 30.195312 161.710938 C 29.449219 161.726562 28.824219 161.140625 28.796875 160.390625 C 28.773438 159.777344 29.160156 159.238281 29.710938 159.042969 C 34.175781 157.449219 38.476562 155.917969 42.628906 154.441406 C 131.4375 122.851562 151.800781 115.597656 227.070312 57.585938 L 220.804688 49.242188 C 220.351562 48.636719 220.46875 47.777344 221.078125 47.320312 C 221.277344 47.171875 221.507812 47.085938 221.738281 47.054688 L 221.738281 47.046875 L 269.101562 41.328125 C 269.855469 41.242188 270.539062 41.78125 270.625 42.535156 C 270.65625 42.804688 270.609375 43.074219 270.496094 43.300781 L 251.796875 87.105469 C 251.5 87.804688 250.695312 88.128906 249.996094 87.832031 C 249.738281 87.722656 249.53125 87.542969 249.390625 87.328125 Z M 243.527344 79.527344 " fill-opacity="1" fill-rule="nonzero"/></g></g><g clip-path="url(#7b94f723b6)"><g clip-path="url(#b9d8e75d4c)"><g clip-path="url(#cb49af9160)"><path fill="#55bf45" d="M 291.433594 131.359375 C 256.828125 131.359375 228.710938 159.476562 228.710938 194.085938 C 228.710938 228.691406 256.828125 256.808594 291.433594 256.808594 C 326.042969 256.808594 354.160156 228.691406 354.160156 194.085938 C 354.160156 159.476562 326.042969 131.359375 291.433594 131.359375 Z M 291.433594 134.085938 C 324.605469 134.085938 351.433594 160.914062 351.433594 194.085938 C 351.433594 227.253906 324.605469 254.082031 291.433594 254.082031 C 258.265625 254.082031 231.4375 227.253906 231.4375 194.085938 C 231.4375 160.914062 258.265625 134.085938 291.433594 134.085938 Z M 291.433594 134.085938 " fill-opacity="1" fill-rule="nonzero"/></g></g></g><g clip-path="url(#8e4d4333dc)"><g clip-path="url(#6343d357db)"><g clip-path="url(#ee295ace76)"><path stroke-linecap="butt" transform="matrix(1.306549, 0, 0, 1.306549, 228.710116, 131.359971)" fill="none" stroke-linejoin="miter" d="M 0.000628846 48.008873 C 0.000628846 60.739208 5.059278 72.952317 14.061401 81.95444 C 23.063524 90.956563 35.276633 96.015212 48.006968 96.015212 C 60.740293 96.015212 72.950413 90.956563 81.955525 81.95444 C 90.957648 72.952317 96.016297 60.739208 96.016297 48.008873 C 96.016297 35.275548 90.957648 23.065428 81.955525 14.060315 C 72.950413 5.058192 60.740293 -0.00045645 48.006968 -0.00045645 C 35.276633 -0.00045645 23.063524 5.058192 14.061401 14.060315 C 5.059278 23.065428 0.000628846 35.275548 0.000628846 48.008873 Z M 0.000628846 48.008873 " stroke="#55bf45" stroke-width="4.592248" stroke-opacity="1" stroke-miterlimit="4"/></g></g></g><g fill="#55bf45" fill-opacity="1"><g transform="translate(0.0000045, 319.622012)"><g><path d="M 26.40625 -8.375 L 9.984375 -8.375 L 6.96875 0 L 1.78125 0 L 15.390625 -37.421875 L 21.0625 -37.421875 L 34.609375 0 L 29.4375 0 Z M 25 -12.359375 L 18.203125 -31.375 L 11.390625 -12.359375 Z M 25 -12.359375 "/></g></g></g><g fill="#55bf45" fill-opacity="1"><g transform="translate(36.394193, 319.622012)"><g><path d="M 29.328125 -26.625 C 29.328125 -23.488281 28.253906 -20.882812 26.109375 -18.8125 C 23.960938 -16.75 20.695312 -15.71875 16.3125 -15.71875 L 9.078125 -15.71875 L 9.078125 0 L 4.15625 0 L 4.15625 -37.640625 L 16.3125 -37.640625 C 20.5625 -37.640625 23.789062 -36.613281 26 -34.5625 C 28.21875 -32.507812 29.328125 -29.863281 29.328125 -26.625 Z M 16.3125 -19.765625 C 19.039062 -19.765625 21.050781 -20.359375 22.34375 -21.546875 C 23.644531 -22.734375 24.296875 -24.425781 24.296875 -26.625 C 24.296875 -31.269531 21.632812 -33.59375 16.3125 -33.59375 L 9.078125 -33.59375 L 9.078125 -19.765625 Z M 16.3125 -19.765625 "/></g></g></g><g fill="#55bf45" fill-opacity="1"><g transform="translate(67.658636, 319.622012)"><g><path d="M 23.96875 0 L 15.015625 -15.390625 L 9.078125 -15.390625 L 9.078125 0 L 4.15625 0 L 4.15625 -37.640625 L 16.3125 -37.640625 C 19.15625 -37.640625 21.554688 -37.148438 23.515625 -36.171875 C 25.472656 -35.203125 26.9375 -33.890625 27.90625 -32.234375 C 28.882812 -30.578125 29.375 -28.6875 29.375 -26.5625 C 29.375 -23.976562 28.625 -21.691406 27.125 -19.703125 C 25.632812 -17.722656 23.394531 -16.410156 20.40625 -15.765625 L 29.859375 0 Z M 9.078125 -19.328125 L 16.3125 -19.328125 C 18.96875 -19.328125 20.960938 -19.984375 22.296875 -21.296875 C 23.628906 -22.617188 24.296875 -24.375 24.296875 -26.5625 C 24.296875 -28.800781 23.640625 -30.53125 22.328125 -31.75 C 21.015625 -32.976562 19.007812 -33.59375 16.3125 -33.59375 L 9.078125 -33.59375 Z M 9.078125 -19.328125 "/></g></g></g><g fill="#55bf45" fill-opacity="1"><g transform="translate(100.48902, 319.622012)"><g><path d="M 8.96875 -37.640625 L 8.96875 -13.828125 C 8.96875 -10.472656 9.785156 -7.984375 11.421875 -6.359375 C 13.054688 -4.742188 15.332031 -3.9375 18.25 -3.9375 C 21.132812 -3.9375 23.394531 -4.742188 25.03125 -6.359375 C 26.664062 -7.984375 27.484375 -10.472656 27.484375 -13.828125 L 27.484375 -37.640625 L 32.40625 -37.640625 L 32.40625 -13.875 C 32.40625 -10.75 31.773438 -8.113281 30.515625 -5.96875 C 29.253906 -3.820312 27.550781 -2.226562 25.40625 -1.1875 C 23.257812 -0.144531 20.859375 0.375 18.203125 0.375 C 15.535156 0.375 13.128906 -0.144531 10.984375 -1.1875 C 8.847656 -2.226562 7.15625 -3.820312 5.90625 -5.96875 C 4.664062 -8.113281 4.046875 -10.75 4.046875 -13.875 L 4.046875 -37.640625 Z M 8.96875 -37.640625 "/></g></g></g><g fill="#55bf45" fill-opacity="1"><g transform="translate(136.937216, 319.622012)"><g><path d="M 42.328125 -37.375 L 42.328125 0 L 37.421875 0 L 37.421875 -27.859375 L 25 0 L 21.546875 0 L 9.078125 -27.921875 L 9.078125 0 L 4.15625 0 L 4.15625 -37.375 L 9.453125 -37.375 L 23.28125 -6.484375 L 37.09375 -37.375 Z M 42.328125 -37.375 "/></g></g></g><g fill="#55bf45" fill-opacity="1"><g transform="translate(183.428912, 319.622012)"><g><path d="M 26.40625 -8.375 L 9.984375 -8.375 L 6.96875 0 L 1.78125 0 L 15.390625 -37.421875 L 21.0625 -37.421875 L 34.609375 0 L 29.4375 0 Z M 25 -12.359375 L 18.203125 -31.375 L 11.390625 -12.359375 Z M 25 -12.359375 "/></g></g></g><g fill="#55bf45" fill-opacity="1"><g transform="translate(221.357935, 319.622012)"><g><path d="M 1.78125 -19.015625 C 1.78125 -22.753906 2.585938 -26.085938 4.203125 -29.015625 C 5.828125 -31.953125 8.085938 -34.238281 10.984375 -35.875 C 13.890625 -37.519531 17.175781 -38.34375 20.84375 -38.34375 C 25.34375 -38.34375 29.191406 -37.15625 32.390625 -34.78125 C 35.597656 -32.40625 37.742188 -29.164062 38.828125 -25.0625 L 28.671875 -25.0625 C 27.921875 -26.644531 26.847656 -27.847656 25.453125 -28.671875 C 24.066406 -29.503906 22.492188 -29.921875 20.734375 -29.921875 C 17.890625 -29.921875 15.582031 -28.925781 13.8125 -26.9375 C 12.050781 -24.957031 11.171875 -22.316406 11.171875 -19.015625 C 11.171875 -15.703125 12.050781 -13.050781 13.8125 -11.0625 C 15.582031 -9.082031 17.890625 -8.09375 20.734375 -8.09375 C 22.492188 -8.09375 24.066406 -8.503906 25.453125 -9.328125 C 26.847656 -10.160156 27.921875 -11.367188 28.671875 -12.953125 L 38.828125 -12.953125 C 37.742188 -8.847656 35.597656 -5.617188 32.390625 -3.265625 C 29.191406 -0.910156 25.34375 0.265625 20.84375 0.265625 C 17.175781 0.265625 13.890625 -0.550781 10.984375 -2.1875 C 8.085938 -3.820312 5.828125 -6.097656 4.203125 -9.015625 C 2.585938 -11.929688 1.78125 -15.265625 1.78125 -19.015625 Z M 1.78125 -19.015625 "/></g></g></g><g fill="#55bf45" fill-opacity="1"><g transform="translate(262.503896, 319.622012)"><g><path d="M 26.953125 -6.703125 L 12.796875 -6.703125 L 10.53125 0 L 0.859375 0 L 14.578125 -37.90625 L 25.265625 -37.90625 L 38.984375 0 L 29.21875 0 Z M 24.5625 -13.828125 L 19.875 -27.703125 L 15.234375 -13.828125 Z M 24.5625 -13.828125 "/></g></g></g><g fill="#55bf45" fill-opacity="1"><g transform="translate(302.299926, 319.622012)"><g><path d="M 17.0625 0.375 C 14.289062 0.375 11.804688 -0.0703125 9.609375 -0.96875 C 7.410156 -1.875 5.65625 -3.207031 4.34375 -4.96875 C 3.03125 -6.726562 2.335938 -8.851562 2.265625 -11.34375 L 12.09375 -11.34375 C 12.238281 -9.9375 12.722656 -8.863281 13.546875 -8.125 C 14.378906 -7.382812 15.460938 -7.015625 16.796875 -7.015625 C 18.160156 -7.015625 19.238281 -7.328125 20.03125 -7.953125 C 20.820312 -8.585938 21.21875 -9.460938 21.21875 -10.578125 C 21.21875 -11.515625 20.898438 -12.289062 20.265625 -12.90625 C 19.640625 -13.519531 18.867188 -14.023438 17.953125 -14.421875 C 17.035156 -14.816406 15.734375 -15.265625 14.046875 -15.765625 C 11.597656 -16.523438 9.597656 -17.28125 8.046875 -18.03125 C 6.492188 -18.789062 5.160156 -19.90625 4.046875 -21.375 C 2.929688 -22.851562 2.375 -24.78125 2.375 -27.15625 C 2.375 -30.6875 3.648438 -33.453125 6.203125 -35.453125 C 8.765625 -37.453125 12.097656 -38.453125 16.203125 -38.453125 C 20.378906 -38.453125 23.742188 -37.453125 26.296875 -35.453125 C 28.847656 -33.453125 30.21875 -30.671875 30.40625 -27.109375 L 20.40625 -27.109375 C 20.332031 -28.328125 19.878906 -29.285156 19.046875 -29.984375 C 18.222656 -30.691406 17.164062 -31.046875 15.875 -31.046875 C 14.757812 -31.046875 13.859375 -30.75 13.171875 -30.15625 C 12.492188 -29.5625 12.15625 -28.707031 12.15625 -27.59375 C 12.15625 -26.375 12.726562 -25.421875 13.875 -24.734375 C 15.03125 -24.046875 16.832031 -23.304688 19.28125 -22.515625 C 21.726562 -21.691406 23.71875 -20.898438 25.25 -20.140625 C 26.78125 -19.390625 28.101562 -18.289062 29.21875 -16.84375 C 30.332031 -15.40625 30.890625 -13.550781 30.890625 -11.28125 C 30.890625 -9.125 30.335938 -7.160156 29.234375 -5.390625 C 28.140625 -3.628906 26.546875 -2.226562 24.453125 -1.1875 C 22.367188 -0.144531 19.90625 0.375 17.0625 0.375 Z M 17.0625 0.375 "/></g></g></g><g fill="#55bf45" fill-opacity="1"><g transform="translate(335.508285, 319.622012)"><g><path d="M 36.1875 -37.90625 L 36.1875 0 L 26.953125 0 L 26.953125 -15.609375 L 12.578125 -15.609375 L 12.578125 0 L 3.34375 0 L 3.34375 -37.90625 L 12.578125 -37.90625 L 12.578125 -23.0625 L 26.953125 -23.0625 L 26.953125 -37.90625 Z M 36.1875 -37.90625 "/></g></g></g></svg>