<svg xmlns="http://www.w3.org/2000/svg" xmlns:xlink="http://www.w3.org/1999/xlink" width="512" zoomAndPan="magnify" viewBox="0 0 384 383.999986" height="512" preserveAspectRatio="xMidYMid meet" version="1.0"><path fill="#120f59" d="M 227.621094 382 L 154.839844 382 C 154.230469 382.027344 153.621094 382.027344 153.011719 381.996094 C 152.402344 381.96875 151.796875 381.90625 151.195312 381.816406 C 150.59375 381.726562 149.996094 381.609375 149.402344 381.460938 C 148.8125 381.3125 148.230469 381.132812 147.65625 380.929688 C 147.082031 380.722656 146.519531 380.492188 145.96875 380.230469 C 145.414062 379.96875 144.878906 379.683594 144.355469 379.371094 C 143.832031 379.058594 143.324219 378.71875 142.835938 378.359375 C 142.34375 377.996094 141.875 377.609375 141.421875 377.199219 C 140.96875 376.792969 140.535156 376.363281 140.125 375.910156 C 139.714844 375.460938 139.328125 374.992188 138.964844 374.503906 C 138.597656 374.015625 138.257812 373.507812 137.945312 372.988281 C 137.628906 372.464844 137.339844 371.929688 137.078125 371.378906 C 136.8125 370.828125 136.578125 370.265625 136.371094 369.691406 C 136.164062 369.121094 135.984375 368.539062 135.832031 367.945312 C 135.683594 367.355469 135.5625 366.761719 135.46875 366.15625 C 135.375 365.554688 135.3125 364.949219 135.28125 364.339844 L 128.699219 323.820312 C 120.410156 320.429688 112.679688 316.054688 105.5 310.699219 L 64.859375 327.621094 C 62.730469 328.566406 60.496094 329.078125 58.167969 329.167969 C 55.839844 329.253906 53.574219 328.902344 51.378906 328.121094 C 49.054688 327.371094 46.957031 326.207031 45.085938 324.632812 C 43.214844 323.054688 41.714844 321.183594 40.578125 319.019531 L 4.480469 256.359375 C 3.886719 255.363281 3.390625 254.324219 2.992188 253.238281 C 2.589844 252.152344 2.292969 251.035156 2.097656 249.894531 C 1.902344 248.753906 1.8125 247.605469 1.828125 246.445312 C 1.84375 245.289062 1.964844 244.140625 2.195312 243.007812 C 2.421875 241.871094 2.75 240.765625 3.179688 239.691406 C 3.609375 238.617188 4.136719 237.589844 4.753906 236.609375 C 5.375 235.632812 6.078125 234.71875 6.863281 233.871094 C 7.652344 233.019531 8.511719 232.25 9.441406 231.558594 L 42.179688 205.359375 C 41.578125 200.925781 41.332031 196.472656 41.441406 192 C 41.53125 188.550781 41.894531 185.128906 42.539062 181.738281 L 42.960938 179.238281 L 8.820312 152 C 7.660156 151.074219 6.761719 149.941406 6.121094 148.601562 C 5.128906 147.109375 4.332031 145.523438 3.730469 143.839844 C 3.128906 142.152344 2.742188 140.421875 2.566406 138.640625 C 2.394531 136.859375 2.4375 135.085938 2.699219 133.3125 C 2.960938 131.542969 3.4375 129.832031 4.121094 128.179688 L 40.800781 62.640625 C 41.261719 61.84375 41.816406 61.117188 42.460938 60.460938 C 43.109375 59.605469 43.824219 58.8125 44.605469 58.082031 C 45.390625 57.351562 46.230469 56.691406 47.125 56.101562 C 48.019531 55.511719 48.957031 55.003906 49.941406 54.574219 C 50.921875 54.144531 51.933594 53.800781 52.972656 53.542969 C 54.015625 53.285156 55.070312 53.117188 56.136719 53.039062 C 57.207031 52.960938 58.273438 52.972656 59.339844 53.078125 C 60.40625 53.179688 61.457031 53.375 62.492188 53.65625 C 63.527344 53.9375 64.527344 54.308594 65.5 54.761719 L 105.5 71.421875 C 111.820312 66.960938 118.5 63.140625 124.558594 59.699219 L 128.300781 57.558594 L 133.441406 18.359375 C 133.597656 17.246094 133.921875 16.1875 134.421875 15.179688 C 134.824219 14.269531 135.285156 13.390625 135.804688 12.542969 C 136.324219 11.691406 136.902344 10.882812 137.53125 10.113281 C 138.160156 9.339844 138.835938 8.613281 139.5625 7.933594 C 140.289062 7.253906 141.058594 6.625 141.871094 6.046875 C 142.683594 5.46875 143.527344 4.949219 144.410156 4.488281 C 145.289062 4.023438 146.199219 3.621094 147.132812 3.277344 C 148.066406 2.9375 149.019531 2.65625 149.992188 2.445312 C 150.964844 2.230469 151.949219 2.082031 152.941406 2 L 225.699219 2 C 226.308594 1.972656 226.917969 1.972656 227.527344 2.003906 C 228.136719 2.03125 228.742188 2.09375 229.347656 2.183594 C 229.949219 2.273438 230.546875 2.390625 231.140625 2.539062 C 231.730469 2.6875 232.3125 2.867188 232.886719 3.070312 C 233.460938 3.277344 234.027344 3.507812 234.578125 3.769531 C 235.128906 4.027344 235.667969 4.316406 236.191406 4.628906 C 236.714844 4.941406 237.222656 5.277344 237.710938 5.640625 C 238.203125 6.003906 238.671875 6.390625 239.125 6.796875 C 239.578125 7.207031 240.011719 7.636719 240.421875 8.085938 C 240.832031 8.539062 241.222656 9.007812 241.585938 9.496094 C 241.953125 9.984375 242.292969 10.488281 242.609375 11.011719 C 242.921875 11.535156 243.210938 12.070312 243.476562 12.621094 C 243.738281 13.171875 243.976562 13.730469 244.183594 14.304688 C 244.390625 14.878906 244.570312 15.460938 244.722656 16.050781 C 244.875 16.640625 244.996094 17.238281 245.089844 17.84375 C 245.183594 18.445312 245.246094 19.050781 245.28125 19.660156 L 251.859375 60.179688 C 260.144531 63.578125 267.878906 67.953125 275.058594 73.300781 L 315.679688 56.378906 C 317.8125 55.445312 320.042969 54.9375 322.371094 54.851562 C 324.699219 54.765625 326.960938 55.105469 329.160156 55.878906 C 331.488281 56.628906 333.585938 57.789062 335.457031 59.363281 C 337.328125 60.941406 338.828125 62.8125 339.960938 64.980469 L 376 127.640625 C 376.59375 128.636719 377.089844 129.675781 377.488281 130.761719 C 377.890625 131.847656 378.1875 132.964844 378.382812 134.105469 C 378.578125 135.246094 378.667969 136.394531 378.652344 137.554688 C 378.636719 138.710938 378.511719 139.859375 378.285156 140.992188 C 378.058594 142.128906 377.730469 143.234375 377.300781 144.308594 C 376.871094 145.382812 376.34375 146.410156 375.726562 147.390625 C 375.105469 148.367188 374.402344 149.28125 373.613281 150.128906 C 372.828125 150.980469 371.96875 151.75 371.039062 152.441406 L 338.28125 178.640625 C 338.878906 183.074219 339.128906 187.527344 339.019531 192 C 338.9375 195.449219 338.578125 198.871094 337.941406 202.261719 C 337.800781 203.039062 337.660156 203.820312 337.539062 204.601562 L 373.460938 232 C 374.371094 232.660156 375.214844 233.398438 375.988281 234.214844 C 376.761719 235.03125 377.449219 235.910156 378.058594 236.855469 C 378.667969 237.804688 379.183594 238.796875 379.601562 239.839844 C 380.023438 240.882812 380.347656 241.957031 380.566406 243.058594 C 380.789062 244.160156 380.902344 245.273438 380.914062 246.398438 C 380.925781 247.523438 380.835938 248.640625 380.636719 249.746094 C 380.441406 250.855469 380.140625 251.933594 379.742188 252.984375 C 379.339844 254.035156 378.847656 255.042969 378.261719 256 L 341.601562 319.539062 C 340.460938 321.589844 338.980469 323.359375 337.164062 324.839844 C 335.347656 326.324219 333.316406 327.417969 331.078125 328.121094 C 328.785156 328.914062 326.425781 329.242188 324.003906 329.105469 C 321.578125 328.972656 319.273438 328.382812 317.078125 327.339844 L 276.5 310.441406 L 273.179688 312.621094 C 267.0625 316.839844 260.640625 320.53125 253.921875 323.699219 L 247.078125 366 C 246.898438 367.007812 246.585938 367.976562 246.140625 368.898438 C 245.734375 369.804688 245.269531 370.679688 244.746094 371.523438 C 244.222656 372.367188 243.644531 373.171875 243.011719 373.941406 C 242.382812 374.707031 241.703125 375.429688 240.976562 376.105469 C 240.246094 376.78125 239.480469 377.40625 238.667969 377.976562 C 237.859375 378.550781 237.011719 379.070312 236.132812 379.527344 C 235.253906 379.988281 234.347656 380.390625 233.414062 380.730469 C 232.480469 381.070312 231.527344 381.34375 230.558594 381.558594 C 229.589844 381.769531 228.609375 381.917969 227.621094 382 Z M 155.019531 362 L 227.441406 362 C 227.019531 362 227.21875 361.558594 227.601562 360.980469 L 234.960938 314.980469 C 235.105469 314.078125 235.371094 313.210938 235.753906 312.378906 C 236.136719 311.550781 236.625 310.785156 237.214844 310.089844 C 237.808594 309.394531 238.484375 308.789062 239.242188 308.277344 C 240 307.769531 240.8125 307.367188 241.679688 307.078125 C 248.960938 304.222656 255.78125 300.515625 262.140625 295.960938 C 264.898438 294.160156 267.621094 292.378906 270.359375 290.738281 C 271.03125 290.335938 271.738281 290.019531 272.484375 289.78125 C 273.230469 289.546875 273.992188 289.398438 274.773438 289.34375 C 275.550781 289.285156 276.328125 289.320312 277.097656 289.441406 C 277.871094 289.566406 278.617188 289.78125 279.339844 290.078125 L 325.339844 309.238281 L 360.421875 246.960938 L 321.140625 217.199219 C 320.519531 216.734375 319.960938 216.203125 319.460938 215.609375 C 318.964844 215.011719 318.542969 214.367188 318.195312 213.671875 C 317.847656 212.976562 317.585938 212.253906 317.40625 211.496094 C 317.230469 210.742188 317.140625 209.976562 317.140625 209.199219 C 317.230469 205.75 317.597656 202.332031 318.238281 198.941406 C 318.710938 196.636719 318.984375 194.308594 319.058594 191.960938 C 319.339844 187.21875 318.871094 182.550781 317.660156 177.960938 C 317.335938 176.992188 317.167969 175.996094 317.152344 174.972656 C 317.132812 173.953125 317.269531 172.953125 317.558594 171.972656 C 317.851562 170.992188 318.28125 170.078125 318.847656 169.230469 C 319.417969 168.382812 320.101562 167.636719 320.898438 167 L 358.140625 137.199219 L 322.339844 74.441406 L 277.421875 94 C 276.59375 94.34375 275.734375 94.574219 274.84375 94.691406 C 273.953125 94.804688 273.0625 94.800781 272.175781 94.675781 C 271.285156 94.550781 270.429688 94.308594 269.605469 93.953125 C 268.78125 93.597656 268.019531 93.140625 267.320312 92.578125 C 259.09375 85.6875 249.90625 80.496094 239.761719 77 C 238.890625 76.710938 238.078125 76.3125 237.320312 75.800781 C 236.5625 75.289062 235.886719 74.6875 235.296875 73.988281 C 234.703125 73.292969 234.214844 72.53125 233.832031 71.699219 C 233.449219 70.867188 233.183594 70.003906 233.039062 69.101562 L 225.519531 22 L 153.140625 22 C 153.5 22 153.339844 22.398438 153.019531 22.898438 L 147.539062 64.898438 C 147.347656 66.417969 146.832031 67.816406 145.996094 69.097656 C 145.160156 70.375 144.089844 71.410156 142.78125 72.199219 C 140.140625 73.78125 137.339844 75.359375 134.5 76.980469 C 127.0625 80.972656 119.96875 85.507812 113.21875 90.578125 C 112.523438 91.132812 111.769531 91.582031 110.953125 91.933594 C 110.136719 92.28125 109.292969 92.519531 108.414062 92.644531 C 107.535156 92.769531 106.652344 92.777344 105.773438 92.667969 C 104.890625 92.558594 104.042969 92.335938 103.21875 92 L 58 73.300781 L 57.460938 73.738281 L 22.179688 137 L 59.621094 167 C 60.800781 167.949219 61.722656 169.105469 62.378906 170.476562 C 63.03125 171.84375 63.359375 173.285156 63.359375 174.800781 C 63.28125 178.25 62.914062 181.671875 62.261719 185.058594 C 60.910156 192.125 61.109375 199.144531 62.859375 206.121094 C 63.183594 207.089844 63.351562 208.085938 63.367188 209.105469 C 63.386719 210.128906 63.25 211.128906 62.960938 212.109375 C 62.671875 213.089844 62.242188 214.003906 61.671875 214.851562 C 61.101562 215.699219 60.417969 216.441406 59.621094 217.078125 L 22.359375 246.878906 L 58.199219 309.558594 L 103.121094 290 C 103.941406 289.671875 104.792969 289.453125 105.671875 289.347656 C 106.554688 289.238281 107.433594 289.25 108.308594 289.375 C 109.1875 289.496094 110.035156 289.734375 110.847656 290.082031 C 111.664062 290.425781 112.421875 290.875 113.121094 291.421875 C 121.351562 298.304688 130.539062 303.496094 140.679688 307 C 141.546875 307.289062 142.359375 307.6875 143.117188 308.199219 C 143.875 308.710938 144.550781 309.3125 145.144531 310.011719 C 145.738281 310.707031 146.222656 311.46875 146.605469 312.300781 C 146.992188 313.132812 147.253906 313.996094 147.398438 314.898438 Z M 361.460938 247.800781 C 361.886719 248.253906 362.382812 248.621094 362.941406 248.898438 Z M 361.460938 247.800781 " fill-opacity="1" fill-rule="nonzero"/><path fill="#120f59" d="M 191.238281 282.859375 C 189.753906 282.859375 188.265625 282.824219 186.78125 282.75 C 185.296875 282.675781 183.8125 282.566406 182.335938 282.421875 C 180.855469 282.277344 179.378906 282.09375 177.90625 281.875 C 176.4375 281.660156 174.972656 281.402344 173.515625 281.113281 C 172.054688 280.824219 170.605469 280.5 169.164062 280.136719 C 167.71875 279.777344 166.289062 279.378906 164.863281 278.949219 C 163.441406 278.515625 162.03125 278.050781 160.628906 277.546875 C 159.230469 277.046875 157.84375 276.511719 156.46875 275.945312 C 155.09375 275.375 153.738281 274.773438 152.390625 274.136719 C 151.046875 273.5 149.71875 272.832031 148.410156 272.132812 C 147.097656 271.429688 145.804688 270.699219 144.527344 269.933594 C 143.253906 269.167969 141.996094 268.375 140.761719 267.546875 C 139.523438 266.722656 138.308594 265.863281 137.113281 264.980469 C 135.921875 264.09375 134.75 263.179688 133.597656 262.234375 C 132.449219 261.292969 131.324219 260.320312 130.222656 259.324219 C 129.121094 258.324219 128.042969 257.300781 126.992188 256.246094 C 125.941406 255.195312 124.914062 254.121094 123.917969 253.019531 C 122.917969 251.917969 121.949219 250.789062 121.003906 249.640625 C 120.0625 248.492188 119.144531 247.320312 118.261719 246.125 C 117.375 244.929688 116.519531 243.714844 115.691406 242.480469 C 114.867188 241.242188 114.070312 239.988281 113.308594 238.710938 C 112.542969 237.4375 111.808594 236.140625 111.109375 234.832031 C 110.40625 233.519531 109.738281 232.191406 109.105469 230.847656 C 108.46875 229.503906 107.867188 228.144531 107.296875 226.769531 C 106.726562 225.398438 106.191406 224.011719 105.691406 222.609375 C 105.191406 221.210938 104.722656 219.796875 104.292969 218.375 C 103.859375 216.953125 103.464844 215.519531 103.101562 214.078125 C 102.742188 212.632812 102.414062 211.183594 102.125 209.726562 C 101.835938 208.265625 101.582031 206.804688 101.363281 205.332031 C 101.144531 203.859375 100.964844 202.386719 100.816406 200.90625 C 100.671875 199.425781 100.5625 197.945312 100.488281 196.457031 C 100.417969 194.972656 100.378906 193.488281 100.378906 192 C 100.378906 190.511719 100.417969 189.027344 100.488281 187.542969 C 100.5625 186.054688 100.671875 184.574219 100.816406 183.09375 C 100.964844 181.613281 101.144531 180.140625 101.363281 178.667969 C 101.582031 177.195312 101.835938 175.734375 102.125 174.273438 C 102.414062 172.816406 102.742188 171.363281 103.101562 169.921875 C 103.464844 168.480469 103.859375 167.046875 104.292969 165.625 C 104.722656 164.203125 105.191406 162.789062 105.691406 161.390625 C 106.191406 159.988281 106.726562 158.601562 107.296875 157.230469 C 107.867188 155.855469 108.46875 154.496094 109.105469 153.152344 C 109.738281 151.808594 110.40625 150.480469 111.109375 149.167969 C 111.808594 147.859375 112.542969 146.5625 113.308594 145.289062 C 114.070312 144.011719 114.867188 142.757812 115.691406 141.519531 C 116.519531 140.285156 117.375 139.070312 118.261719 137.875 C 119.144531 136.679688 120.0625 135.507812 121.003906 134.359375 C 121.949219 133.210938 122.917969 132.082031 123.917969 130.980469 C 124.914062 129.878906 125.941406 128.804688 126.992188 127.753906 C 128.042969 126.699219 129.121094 125.675781 130.222656 124.675781 C 131.324219 123.679688 132.449219 122.707031 133.597656 121.765625 C 134.75 120.820312 135.921875 119.90625 137.113281 119.019531 C 138.308594 118.132812 139.523438 117.277344 140.761719 116.453125 C 141.996094 115.625 143.253906 114.832031 144.527344 114.066406 C 145.804688 113.300781 147.097656 112.570312 148.410156 111.867188 C 149.71875 111.167969 151.046875 110.5 152.390625 109.863281 C 153.738281 109.226562 155.09375 108.625 156.46875 108.054688 C 157.84375 107.488281 159.230469 106.953125 160.628906 106.453125 C 162.03125 105.949219 163.441406 105.484375 164.863281 105.050781 C 166.289062 104.621094 167.71875 104.222656 169.164062 103.863281 C 170.605469 103.5 172.054688 103.175781 173.515625 102.886719 C 174.972656 102.597656 176.4375 102.339844 177.90625 102.125 C 179.378906 101.90625 180.855469 101.722656 182.335938 101.578125 C 183.8125 101.433594 185.296875 101.324219 186.78125 101.25 C 188.265625 101.175781 189.753906 101.140625 191.238281 101.140625 C 192.726562 101.140625 194.214844 101.175781 195.699219 101.25 C 197.183594 101.324219 198.664062 101.433594 200.144531 101.578125 C 201.625 101.722656 203.101562 101.90625 204.570312 102.125 C 206.042969 102.339844 207.507812 102.597656 208.964844 102.886719 C 210.425781 103.175781 211.875 103.5 213.316406 103.863281 C 214.757812 104.222656 216.191406 104.621094 217.613281 105.050781 C 219.039062 105.484375 220.449219 105.949219 221.851562 106.453125 C 223.25 106.953125 224.636719 107.488281 226.011719 108.054688 C 227.382812 108.625 228.742188 109.226562 230.085938 109.863281 C 231.433594 110.5 232.757812 111.167969 234.070312 111.867188 C 235.382812 112.570312 236.675781 113.300781 237.953125 114.066406 C 239.226562 114.832031 240.484375 115.625 241.71875 116.453125 C 242.957031 117.277344 244.171875 118.132812 245.363281 119.019531 C 246.558594 119.90625 247.730469 120.820312 248.882812 121.765625 C 250.03125 122.707031 251.15625 123.679688 252.257812 124.675781 C 253.359375 125.675781 254.4375 126.699219 255.488281 127.753906 C 256.539062 128.804688 257.5625 129.878906 258.5625 130.980469 C 259.5625 132.082031 260.53125 133.210938 261.476562 134.359375 C 262.417969 135.507812 263.332031 136.679688 264.21875 137.875 C 265.105469 139.070312 265.960938 140.285156 266.789062 141.519531 C 267.613281 142.757812 268.410156 144.011719 269.171875 145.289062 C 269.9375 146.5625 270.671875 147.859375 271.371094 149.167969 C 272.074219 150.480469 272.742188 151.808594 273.375 153.152344 C 274.011719 154.496094 274.613281 155.855469 275.183594 157.230469 C 275.753906 158.601562 276.289062 159.988281 276.789062 161.390625 C 277.289062 162.789062 277.757812 164.203125 278.1875 165.625 C 278.621094 167.046875 279.015625 168.480469 279.378906 169.921875 C 279.738281 171.363281 280.0625 172.816406 280.355469 174.273438 C 280.644531 175.734375 280.898438 177.195312 281.117188 178.667969 C 281.335938 180.140625 281.515625 181.613281 281.664062 183.09375 C 281.808594 184.574219 281.917969 186.054688 281.992188 187.542969 C 282.0625 189.027344 282.101562 190.511719 282.101562 192 C 282.097656 193.488281 282.058594 194.972656 281.984375 196.457031 C 281.910156 197.941406 281.800781 199.421875 281.652344 200.902344 C 281.507812 202.382812 281.324219 203.855469 281.101562 205.328125 C 280.882812 206.796875 280.628906 208.261719 280.335938 209.71875 C 280.046875 211.175781 279.71875 212.625 279.355469 214.066406 C 278.996094 215.511719 278.597656 216.941406 278.164062 218.363281 C 277.734375 219.785156 277.265625 221.195312 276.765625 222.597656 C 276.261719 223.996094 275.726562 225.382812 275.15625 226.753906 C 274.585938 228.128906 273.984375 229.488281 273.347656 230.828125 C 272.710938 232.171875 272.042969 233.5 271.34375 234.8125 C 270.640625 236.121094 269.90625 237.414062 269.144531 238.691406 C 268.378906 239.964844 267.582031 241.21875 266.757812 242.457031 C 265.929688 243.691406 265.074219 244.90625 264.1875 246.101562 C 263.304688 247.292969 262.386719 248.464844 261.445312 249.613281 C 260.5 250.761719 259.53125 251.886719 258.53125 252.988281 C 257.535156 254.089844 256.507812 255.167969 255.457031 256.21875 C 254.40625 257.269531 253.332031 258.292969 252.230469 259.292969 C 251.128906 260.292969 250.003906 261.261719 248.855469 262.207031 C 247.707031 263.148438 246.535156 264.0625 245.339844 264.949219 C 244.144531 265.835938 242.929688 266.691406 241.695312 267.515625 C 240.460938 268.34375 239.203125 269.136719 237.929688 269.902344 C 236.65625 270.667969 235.363281 271.402344 234.050781 272.101562 C 232.742188 272.804688 231.414062 273.472656 230.070312 274.109375 C 228.726562 274.746094 227.367188 275.347656 225.996094 275.917969 C 224.621094 276.488281 223.234375 277.023438 221.835938 277.523438 C 220.4375 278.027344 219.027344 278.492188 217.605469 278.925781 C 216.183594 279.359375 214.75 279.753906 213.308594 280.117188 C 211.867188 280.480469 210.417969 280.804688 208.957031 281.097656 C 207.5 281.390625 206.039062 281.644531 204.566406 281.863281 C 203.097656 282.082031 201.621094 282.265625 200.144531 282.414062 C 198.664062 282.558594 197.179688 282.671875 195.695312 282.746094 C 194.210938 282.820312 192.726562 282.859375 191.238281 282.859375 Z M 191.238281 121.140625 C 190.082031 121.140625 188.921875 121.167969 187.761719 121.226562 C 186.605469 121.28125 185.449219 121.367188 184.292969 121.480469 C 183.140625 121.59375 181.988281 121.738281 180.84375 121.90625 C 179.695312 122.078125 178.554688 122.273438 177.414062 122.5 C 176.277344 122.726562 175.148438 122.980469 174.023438 123.261719 C 172.898438 123.546875 171.78125 123.855469 170.671875 124.191406 C 169.5625 124.527344 168.460938 124.890625 167.367188 125.28125 C 166.277344 125.671875 165.195312 126.089844 164.121094 126.535156 C 163.050781 126.976562 161.992188 127.449219 160.945312 127.941406 C 159.894531 128.4375 158.859375 128.960938 157.835938 129.507812 C 156.8125 130.054688 155.804688 130.625 154.8125 131.222656 C 153.816406 131.816406 152.835938 132.4375 151.871094 133.082031 C 150.90625 133.726562 149.960938 134.394531 149.027344 135.085938 C 148.097656 135.777344 147.183594 136.488281 146.285156 137.222656 C 145.390625 137.960938 144.511719 138.71875 143.652344 139.496094 C 142.792969 140.273438 141.953125 141.074219 141.132812 141.894531 C 140.3125 142.714844 139.515625 143.554688 138.734375 144.414062 C 137.957031 145.273438 137.199219 146.152344 136.464844 147.046875 C 135.730469 147.941406 135.015625 148.855469 134.324219 149.789062 C 133.632812 150.71875 132.964844 151.667969 132.320312 152.632812 C 131.679688 153.597656 131.058594 154.574219 130.460938 155.570312 C 129.863281 156.566406 129.292969 157.574219 128.746094 158.597656 C 128.199219 159.621094 127.679688 160.65625 127.183594 161.703125 C 126.6875 162.75 126.21875 163.8125 125.773438 164.882812 C 125.328125 165.953125 124.914062 167.035156 124.523438 168.128906 C 124.132812 169.21875 123.769531 170.320312 123.429688 171.429688 C 123.09375 172.539062 122.785156 173.65625 122.503906 174.78125 C 122.222656 175.90625 121.96875 177.039062 121.742188 178.175781 C 121.515625 179.3125 121.316406 180.457031 121.148438 181.601562 C 120.976562 182.75 120.835938 183.898438 120.722656 185.054688 C 120.609375 186.207031 120.523438 187.363281 120.464844 188.523438 C 120.410156 189.679688 120.378906 190.839844 120.378906 192 C 120.378906 193.160156 120.410156 194.320312 120.464844 195.476562 C 120.523438 196.636719 120.609375 197.792969 120.722656 198.945312 C 120.835938 200.097656 120.976562 201.25 121.148438 202.398438 C 121.316406 203.542969 121.515625 204.6875 121.742188 205.824219 C 121.96875 206.960938 122.222656 208.09375 122.503906 209.21875 C 122.785156 210.34375 123.09375 211.460938 123.429688 212.570312 C 123.769531 213.679688 124.132812 214.78125 124.523438 215.871094 C 124.914062 216.964844 125.328125 218.046875 125.773438 219.117188 C 126.21875 220.1875 126.6875 221.25 127.183594 222.296875 C 127.679688 223.34375 128.199219 224.378906 128.746094 225.402344 C 129.292969 226.425781 129.863281 227.433594 130.460938 228.429688 C 131.058594 229.425781 131.679688 230.402344 132.320312 231.367188 C 132.964844 232.332031 133.632812 233.28125 134.324219 234.210938 C 135.015625 235.144531 135.730469 236.054688 136.464844 236.953125 C 137.199219 237.847656 137.957031 238.726562 138.734375 239.585938 C 139.515625 240.445312 140.3125 241.285156 141.132812 242.105469 C 141.953125 242.925781 142.792969 243.726562 143.652344 244.503906 C 144.511719 245.28125 145.390625 246.039062 146.285156 246.777344 C 147.183594 247.511719 148.097656 248.222656 149.027344 248.914062 C 149.960938 249.605469 150.90625 250.273438 151.871094 250.917969 C 152.835938 251.5625 153.816406 252.183594 154.8125 252.777344 C 155.804688 253.375 156.8125 253.945312 157.835938 254.492188 C 158.859375 255.039062 159.894531 255.5625 160.945312 256.054688 C 161.992188 256.550781 163.050781 257.023438 164.121094 257.464844 C 165.195312 257.910156 166.277344 258.328125 167.367188 258.71875 C 168.460938 259.109375 169.5625 259.472656 170.671875 259.808594 C 171.78125 260.144531 172.898438 260.453125 174.023438 260.738281 C 175.148438 261.019531 176.277344 261.273438 177.414062 261.5 C 178.554688 261.722656 179.695312 261.921875 180.84375 262.09375 C 181.988281 262.261719 183.140625 262.40625 184.292969 262.519531 C 185.449219 262.632812 186.605469 262.71875 187.761719 262.773438 C 188.921875 262.832031 190.082031 262.859375 191.238281 262.859375 C 192.398438 262.859375 193.558594 262.832031 194.71875 262.773438 C 195.875 262.71875 197.03125 262.632812 198.183594 262.519531 C 199.339844 262.40625 200.488281 262.261719 201.636719 262.09375 C 202.785156 261.921875 203.925781 261.726562 205.0625 261.5 C 206.203125 261.273438 207.332031 261.019531 208.457031 260.738281 C 209.582031 260.453125 210.699219 260.144531 211.808594 259.808594 C 212.917969 259.472656 214.019531 259.109375 215.113281 258.71875 C 216.203125 258.328125 217.285156 257.910156 218.355469 257.464844 C 219.429688 257.023438 220.488281 256.550781 221.535156 256.054688 C 222.585938 255.5625 223.621094 255.039062 224.644531 254.492188 C 225.664062 253.945312 226.675781 253.375 227.667969 252.777344 C 228.664062 252.183594 229.644531 251.5625 230.609375 250.917969 C 231.570312 250.273438 232.519531 249.605469 233.453125 248.914062 C 234.382812 248.222656 235.296875 247.511719 236.191406 246.777344 C 237.089844 246.039062 237.96875 245.28125 238.828125 244.503906 C 239.6875 243.726562 240.527344 242.925781 241.34375 242.105469 C 242.164062 241.285156 242.964844 240.445312 243.742188 239.585938 C 244.523438 238.726562 245.28125 237.847656 246.015625 236.953125 C 246.75 236.054688 247.464844 235.144531 248.15625 234.210938 C 248.847656 233.28125 249.511719 232.332031 250.15625 231.367188 C 250.800781 230.402344 251.421875 229.425781 252.019531 228.429688 C 252.613281 227.433594 253.1875 226.425781 253.734375 225.402344 C 254.28125 224.378906 254.800781 223.34375 255.296875 222.296875 C 255.792969 221.25 256.261719 220.1875 256.707031 219.117188 C 257.148438 218.046875 257.566406 216.964844 257.957031 215.871094 C 258.347656 214.78125 258.710938 213.679688 259.046875 212.570312 C 259.386719 211.460938 259.695312 210.34375 259.976562 209.21875 C 260.257812 208.09375 260.511719 206.960938 260.738281 205.824219 C 260.964844 204.6875 261.164062 203.542969 261.332031 202.398438 C 261.503906 201.25 261.644531 200.097656 261.757812 198.945312 C 261.871094 197.792969 261.957031 196.636719 262.015625 195.476562 C 262.070312 194.320312 262.101562 193.160156 262.101562 192 C 262.097656 190.839844 262.070312 189.683594 262.011719 188.523438 C 261.953125 187.367188 261.867188 186.210938 261.75 185.058594 C 261.636719 183.902344 261.492188 182.753906 261.324219 181.605469 C 261.152344 180.460938 260.953125 179.316406 260.726562 178.179688 C 260.5 177.042969 260.242188 175.914062 259.960938 174.789062 C 259.679688 173.664062 259.367188 172.546875 259.03125 171.4375 C 258.695312 170.332031 258.328125 169.230469 257.9375 168.136719 C 257.546875 167.046875 257.128906 165.964844 256.683594 164.894531 C 256.242188 163.824219 255.769531 162.765625 255.273438 161.71875 C 254.777344 160.667969 254.257812 159.636719 253.710938 158.613281 C 253.164062 157.589844 252.589844 156.582031 251.996094 155.589844 C 251.398438 154.59375 250.777344 153.613281 250.132812 152.652344 C 249.488281 151.6875 248.820312 150.738281 248.128906 149.808594 C 247.441406 148.878906 246.726562 147.964844 245.992188 147.070312 C 245.253906 146.171875 244.5 145.292969 243.71875 144.4375 C 242.941406 143.578125 242.140625 142.738281 241.320312 141.917969 C 240.503906 141.097656 239.664062 140.300781 238.804688 139.519531 C 237.945312 138.742188 237.066406 137.984375 236.171875 137.25 C 235.277344 136.511719 234.363281 135.800781 233.429688 135.109375 C 232.5 134.417969 231.550781 133.75 230.589844 133.105469 C 229.625 132.460938 228.644531 131.84375 227.652344 131.246094 C 226.65625 130.648438 225.648438 130.078125 224.628906 129.53125 C 223.605469 128.984375 222.570312 128.460938 221.523438 127.964844 C 220.476562 127.46875 219.414062 127 218.34375 126.554688 C 217.273438 126.109375 216.191406 125.691406 215.101562 125.300781 C 214.011719 124.910156 212.910156 124.546875 211.800781 124.210938 C 210.691406 123.871094 209.574219 123.5625 208.449219 123.28125 C 207.324219 122.996094 206.195312 122.742188 205.058594 122.515625 C 203.921875 122.289062 202.78125 122.089844 201.632812 121.917969 C 200.488281 121.746094 199.335938 121.601562 198.183594 121.488281 C 197.03125 121.375 195.875 121.289062 194.714844 121.230469 C 193.558594 121.171875 192.398438 121.140625 191.238281 121.140625 Z M 191.238281 121.140625 " fill-opacity="1" fill-rule="nonzero"/></svg>