<svg xmlns="http://www.w3.org/2000/svg" xmlns:xlink="http://www.w3.org/1999/xlink" width="512" zoomAndPan="magnify" viewBox="0 0 384 383.999986" height="512" preserveAspectRatio="xMidYMid meet" version="1.0"><path fill="#120f59" d="M 192 0 C 86.136719 0 0 86.136719 0 192 C 0 297.863281 86.136719 384 192 384 C 297.863281 384 384 297.863281 384 192 C 384 86.136719 297.863281 0 192 0 Z M 84.167969 320.652344 C 85.957031 262.65625 133.570312 216 192 216 C 250.429688 216 298.042969 262.65625 299.832031 320.652344 C 270.625 345.167969 233.027344 360 192 360 C 150.972656 360 113.375 345.167969 84.167969 320.652344 Z M 132 132 C 132 98.914062 158.914062 72 192 72 C 225.085938 72 252 98.914062 252 132 C 252 165.085938 225.085938 192 192 192 C 158.914062 192 132 165.085938 132 132 Z M 321.527344 298.859375 C 312.839844 254.003906 281.375 217.285156 239.699219 201.046875 C 261.601562 185.878906 276 160.597656 276 132 C 276 85.691406 238.308594 48 192 48 C 145.691406 48 108 85.691406 108 132 C 108 160.597656 122.398438 185.878906 144.300781 201.058594 C 102.625 217.296875 71.160156 254.015625 62.460938 298.871094 C 38.449219 269.808594 24 232.558594 24 192 C 24 99.359375 99.359375 24 192 24 C 284.640625 24 360 99.359375 360 192 C 360 232.558594 345.550781 269.808594 321.527344 298.859375 Z M 321.527344 298.859375 " fill-opacity="1" fill-rule="nonzero"/></svg>